<svg width="616" height="154" viewBox="0 0 616 154" fill="none" xmlns="http://www.w3.org/2000/svg">
<path d="M2 133H208" stroke="black" stroke-width="4" stroke-linecap="round"/>
<path d="M235.012 59.992L217.228 43.144V57.904C217.228 59.704 215.932 61.288 213.844 61.288C211.756 61.288 210.388 59.92 210.388 57.904V19.168C210.388 17.08 211.756 15.784 213.844 15.784C215.932 15.784 217.228 17.08 217.228 19.168V35.08L233.356 17.368C234.22 16.288 235.516 15.856 236.524 15.856C238.324 15.856 239.836 17.368 239.836 19.168C239.836 19.888 239.62 20.896 238.828 21.688L222.7 39.184L240.268 55.24C241.06 55.96 241.276 57.112 241.276 57.904C241.276 59.704 239.908 61.288 237.964 61.288C237.028 61.288 235.804 60.856 235.012 59.992ZM249.097 12.76V57.976C249.097 60.064 247.801 61.288 245.713 61.288C243.553 61.288 242.329 60.064 242.329 57.976V12.76C242.329 10.672 243.553 9.448 245.641 9.448C247.801 9.448 249.097 10.672 249.097 12.76ZM262.316 48.472C261.308 48.472 259.868 48.472 259.004 48.4C259.796 52.504 262.532 54.448 267.14 54.448C268.364 54.448 269.66 54.376 270.956 54.376C273.332 54.376 274.844 55.312 274.844 57.472C274.844 59.848 272.9 60.64 271.028 60.928C269.444 61.144 268.436 61.144 267.212 61.144C257.132 61.144 252.164 55.6 252.164 45.808C252.164 35.44 257.78 30.256 265.556 30.256C269.876 30.256 275.492 32.416 275.492 39.4C275.492 47.248 268.94 48.472 262.316 48.472ZM269.084 39.328C269.084 37.24 267.428 36.304 265.34 36.304C261.668 36.304 259.652 38.464 259.004 42.352C259.652 42.352 260.444 42.424 262.964 42.424C267.86 42.424 269.084 41.272 269.084 39.328ZM285.277 33.568V57.976C285.277 60.064 283.981 61.288 281.893 61.288C279.733 61.288 278.509 60.064 278.509 57.976V33.568C278.509 31.48 279.733 30.256 281.821 30.256C283.981 30.256 285.277 31.48 285.277 33.568ZM277.645 21.616V20.968C277.645 18.52 279.517 16.72 281.893 16.72C284.269 16.72 286.141 18.52 286.141 20.968V21.616C286.141 24.136 284.269 25.864 281.893 25.864C279.517 25.864 277.645 24.136 277.645 21.616ZM312.464 12.832V57.328C312.464 57.904 312.32 58.48 312.104 58.912C311.672 59.848 310.88 60.712 309.08 60.856C307.856 60.928 306.992 61 305.696 61C294.968 61 288.344 55.528 288.344 45.592C288.344 35.944 296.192 30.328 305.696 30.328V12.832C305.696 10.744 306.992 9.448 309.08 9.448C311.168 9.448 312.464 10.744 312.464 12.832ZM295.112 45.592C295.112 51.928 299.432 54.232 305.696 54.232V37.024C299.216 37.096 295.112 39.976 295.112 45.592ZM331.919 47.824V33.568C331.919 31.48 333.143 30.256 335.303 30.256C337.391 30.256 338.615 31.48 338.615 33.568V47.608C338.615 57.472 334.727 61.288 327.455 61.288C320.183 61.288 316.583 57.256 316.583 47.608V33.568C316.583 31.48 317.807 30.256 319.895 30.256C322.055 30.256 323.279 31.48 323.279 33.568V47.824C323.279 52.936 324.143 54.88 327.527 54.88C330.911 54.88 331.919 52.864 331.919 47.824ZM358.821 57.976V43.72C358.821 38.464 358.029 37.168 354.213 37.168C352.701 37.168 350.973 37.456 349.461 37.672V57.976C349.461 60.064 348.165 61.288 346.077 61.288C343.917 61.288 342.693 60.064 342.693 57.976V33.568C342.693 31.48 343.917 30.256 346.005 30.256C347.085 30.256 347.949 30.616 348.597 31.192C349.965 30.832 352.269 30.472 354.645 30.472C361.917 30.472 365.517 34.648 365.517 43.936V57.976C365.517 60.064 364.293 61.288 362.205 61.288C360.045 61.288 358.821 60.064 358.821 57.976ZM373.891 74.824C372.019 74.608 370.075 73.744 370.075 71.368C370.075 69.208 371.587 68.2 373.963 68.2C375.475 68.2 377.059 68.344 378.283 68.344C384.907 68.344 385.771 66.544 385.771 63.016V61C376.267 61 368.419 56.608 368.419 45.736C368.419 35.8 376.195 30.328 385.771 30.328C387.067 30.328 388.075 30.328 389.299 30.472C391.963 30.832 392.467 32.632 392.539 33.64V33.928V34.216V62.8C392.539 70.72 388.939 74.968 377.707 74.968C376.483 74.968 375.115 74.968 373.891 74.824ZM375.187 45.736C375.187 51.64 379.291 54.232 385.771 54.304V37.096C379.507 37.096 375.187 39.4 375.187 45.736ZM396.009 57.04V56.392C396.009 53.944 397.881 52.144 400.257 52.144C402.633 52.144 404.505 53.944 404.505 56.392V57.04C404.505 59.56 402.633 61.288 400.257 61.288C397.881 61.288 396.009 59.56 396.009 57.04ZM233.321 132.82C231.881 132.46 230.921 131.44 230.921 130.06C230.921 128.38 232.061 127.24 233.861 127.24C234.701 127.24 235.901 127.42 239.141 127.42C241.961 127.42 244.721 125.92 244.721 122.92C244.721 119.86 243.221 118.84 239.261 116.86C233.741 114.1 231.221 111.04 231.221 105.82C231.221 99.22 236.321 95.38 244.541 95.38C245.621 95.38 246.641 95.44 247.361 95.56C248.861 95.8 249.821 96.88 249.821 98.38C249.821 100 248.741 101.32 247.121 101.32C246.281 101.32 244.481 101.14 242.801 101.14C238.841 101.14 237.101 103.36 237.101 105.82C237.101 108.82 238.541 109.78 243.221 112.42C247.541 114.82 250.661 117.4 250.661 122.86C250.661 129.34 245.801 133.18 238.061 133.18C236.021 133.18 234.461 133.12 233.321 132.82ZM252.89 141.82V110.56C252.89 109.96 253.01 109.42 253.31 109C253.67 108.4 254.33 107.86 255.59 107.68C256.61 107.56 257.45 107.56 258.53 107.56C266.51 107.56 272.99 112 272.99 120.28C272.99 129.34 266.45 133 258.53 133V141.82C258.53 143.5 257.45 144.64 255.71 144.64C253.97 144.64 252.89 143.32 252.89 141.82ZM267.35 120.28C267.35 115 263.75 113.2 258.53 113.2V127.42C263.87 127.36 267.35 125.2 267.35 120.28ZM283.022 122.56C282.182 122.56 280.982 122.56 280.262 122.5C280.922 125.92 283.202 127.54 287.042 127.54C288.062 127.54 289.142 127.48 290.222 127.48C292.202 127.48 293.462 128.26 293.462 130.06C293.462 132.04 291.842 132.7 290.282 132.94C288.962 133.12 288.122 133.12 287.102 133.12C278.702 133.12 274.562 128.5 274.562 120.34C274.562 111.7 279.242 107.38 285.722 107.38C289.322 107.38 294.002 109.18 294.002 115C294.002 121.54 288.542 122.56 283.022 122.56ZM288.662 114.94C288.662 113.2 287.282 112.42 285.542 112.42C282.482 112.42 280.802 114.22 280.262 117.46C280.802 117.46 281.462 117.52 283.562 117.52C287.642 117.52 288.662 116.56 288.662 114.94ZM309.956 130.48V118.6C309.956 114.22 309.296 113.14 306.116 113.14C304.856 113.14 303.416 113.38 302.156 113.56V130.48C302.156 132.22 301.076 133.24 299.336 133.24C297.536 133.24 296.516 132.22 296.516 130.48V110.14C296.516 108.4 297.536 107.38 299.276 107.38C300.176 107.38 300.896 107.68 301.436 108.16C302.576 107.86 304.496 107.56 306.476 107.56C312.536 107.56 315.536 111.04 315.536 118.78V130.48C315.536 132.22 314.516 133.24 312.776 133.24C310.976 133.24 309.956 132.22 309.956 130.48ZM338.054 92.86V129.94C338.054 130.42 337.934 130.9 337.754 131.26C337.394 132.04 336.734 132.76 335.234 132.88C334.214 132.94 333.494 133 332.414 133C323.474 133 317.954 128.44 317.954 120.16C317.954 112.12 324.494 107.44 332.414 107.44V92.86C332.414 91.12 333.494 90.04 335.234 90.04C336.974 90.04 338.054 91.12 338.054 92.86ZM323.594 120.16C323.594 125.44 327.194 127.36 332.414 127.36V113.02C327.014 113.08 323.594 115.48 323.594 120.16ZM349.106 122.56C348.266 122.56 347.066 122.56 346.346 122.5C347.006 125.92 349.286 127.54 353.126 127.54C354.146 127.54 355.226 127.48 356.306 127.48C358.286 127.48 359.546 128.26 359.546 130.06C359.546 132.04 357.926 132.7 356.366 132.94C355.046 133.12 354.206 133.12 353.186 133.12C344.786 133.12 340.646 128.5 340.646 120.34C340.646 111.7 345.326 107.38 351.806 107.38C355.406 107.38 360.086 109.18 360.086 115C360.086 121.54 354.626 122.56 349.106 122.56ZM354.746 114.94C354.746 113.2 353.366 112.42 351.626 112.42C348.566 112.42 346.886 114.22 346.346 117.46C346.886 117.46 347.546 117.52 349.646 117.52C353.726 117.52 354.746 116.56 354.746 114.94ZM376.041 130.48V118.6C376.041 114.22 375.381 113.14 372.201 113.14C370.941 113.14 369.501 113.38 368.241 113.56V130.48C368.241 132.22 367.161 133.24 365.421 133.24C363.621 133.24 362.601 132.22 362.601 130.48V110.14C362.601 108.4 363.621 107.38 365.361 107.38C366.261 107.38 366.981 107.68 367.521 108.16C368.661 107.86 370.581 107.56 372.561 107.56C378.621 107.56 381.621 111.04 381.621 118.78V130.48C381.621 132.22 380.601 133.24 378.861 133.24C377.061 133.24 376.041 132.22 376.041 130.48Z" fill="#0C0C0D"/>
<path d="M407 133L614 133" stroke="black" stroke-width="4" stroke-linecap="round"/>
</svg>
