<svg width="952" height="154" viewBox="0 0 952 154" fill="none" xmlns="http://www.w3.org/2000/svg">
<path d="M2 133L376 133" stroke="black" stroke-width="4" stroke-linecap="round"/>
<path d="M403.012 59.992L385.228 43.144V57.904C385.228 59.704 383.932 61.288 381.844 61.288C379.756 61.288 378.388 59.92 378.388 57.904V19.168C378.388 17.08 379.756 15.784 381.844 15.784C383.932 15.784 385.228 17.08 385.228 19.168V35.08L401.356 17.368C402.22 16.288 403.516 15.856 404.524 15.856C406.324 15.856 407.836 17.368 407.836 19.168C407.836 19.888 407.62 20.896 406.828 21.688L390.7 39.184L408.268 55.24C409.06 55.96 409.276 57.112 409.276 57.904C409.276 59.704 407.908 61.288 405.964 61.288C405.028 61.288 403.804 60.856 403.012 59.992ZM417.097 12.76V57.976C417.097 60.064 415.801 61.288 413.713 61.288C411.553 61.288 410.329 60.064 410.329 57.976V12.76C410.329 10.672 411.553 9.448 413.641 9.448C415.801 9.448 417.097 10.672 417.097 12.76ZM430.316 48.472C429.308 48.472 427.868 48.472 427.004 48.4C427.796 52.504 430.532 54.448 435.14 54.448C436.364 54.448 437.66 54.376 438.956 54.376C441.332 54.376 442.844 55.312 442.844 57.472C442.844 59.848 440.9 60.64 439.028 60.928C437.444 61.144 436.436 61.144 435.212 61.144C425.132 61.144 420.164 55.6 420.164 45.808C420.164 35.44 425.78 30.256 433.556 30.256C437.876 30.256 443.492 32.416 443.492 39.4C443.492 47.248 436.94 48.472 430.316 48.472ZM437.084 39.328C437.084 37.24 435.428 36.304 433.34 36.304C429.668 36.304 427.652 38.464 427.004 42.352C427.652 42.352 428.444 42.424 430.964 42.424C435.86 42.424 437.084 41.272 437.084 39.328ZM453.277 33.568V57.976C453.277 60.064 451.981 61.288 449.893 61.288C447.733 61.288 446.509 60.064 446.509 57.976V33.568C446.509 31.48 447.733 30.256 449.821 30.256C451.981 30.256 453.277 31.48 453.277 33.568ZM445.645 21.616V20.968C445.645 18.52 447.517 16.72 449.893 16.72C452.269 16.72 454.141 18.52 454.141 20.968V21.616C454.141 24.136 452.269 25.864 449.893 25.864C447.517 25.864 445.645 24.136 445.645 21.616ZM480.464 12.832V57.328C480.464 57.904 480.32 58.48 480.104 58.912C479.672 59.848 478.88 60.712 477.08 60.856C475.856 60.928 474.992 61 473.696 61C462.968 61 456.344 55.528 456.344 45.592C456.344 35.944 464.192 30.328 473.696 30.328V12.832C473.696 10.744 474.992 9.448 477.08 9.448C479.168 9.448 480.464 10.744 480.464 12.832ZM463.112 45.592C463.112 51.928 467.432 54.232 473.696 54.232V37.024C467.216 37.096 463.112 39.976 463.112 45.592ZM499.919 47.824V33.568C499.919 31.48 501.143 30.256 503.303 30.256C505.391 30.256 506.615 31.48 506.615 33.568V47.608C506.615 57.472 502.727 61.288 495.455 61.288C488.183 61.288 484.583 57.256 484.583 47.608V33.568C484.583 31.48 485.807 30.256 487.895 30.256C490.055 30.256 491.279 31.48 491.279 33.568V47.824C491.279 52.936 492.143 54.88 495.527 54.88C498.911 54.88 499.919 52.864 499.919 47.824ZM526.821 57.976V43.72C526.821 38.464 526.029 37.168 522.213 37.168C520.701 37.168 518.973 37.456 517.461 37.672V57.976C517.461 60.064 516.165 61.288 514.077 61.288C511.917 61.288 510.693 60.064 510.693 57.976V33.568C510.693 31.48 511.917 30.256 514.005 30.256C515.085 30.256 515.949 30.616 516.597 31.192C517.965 30.832 520.269 30.472 522.645 30.472C529.917 30.472 533.517 34.648 533.517 43.936V57.976C533.517 60.064 532.293 61.288 530.205 61.288C528.045 61.288 526.821 60.064 526.821 57.976ZM541.891 74.824C540.019 74.608 538.075 73.744 538.075 71.368C538.075 69.208 539.587 68.2 541.963 68.2C543.475 68.2 545.059 68.344 546.283 68.344C552.907 68.344 553.771 66.544 553.771 63.016V61C544.267 61 536.419 56.608 536.419 45.736C536.419 35.8 544.195 30.328 553.771 30.328C555.067 30.328 556.075 30.328 557.299 30.472C559.963 30.832 560.467 32.632 560.539 33.64V33.928V34.216V62.8C560.539 70.72 556.939 74.968 545.707 74.968C544.483 74.968 543.115 74.968 541.891 74.824ZM543.187 45.736C543.187 51.64 547.291 54.232 553.771 54.304V37.096C547.507 37.096 543.187 39.4 543.187 45.736ZM564.009 57.04V56.392C564.009 53.944 565.881 52.144 568.257 52.144C570.633 52.144 572.505 53.944 572.505 56.392V57.04C572.505 59.56 570.633 61.288 568.257 61.288C565.881 61.288 564.009 59.56 564.009 57.04ZM401.321 132.82C399.881 132.46 398.921 131.44 398.921 130.06C398.921 128.38 400.061 127.24 401.861 127.24C402.701 127.24 403.901 127.42 407.141 127.42C409.961 127.42 412.721 125.92 412.721 122.92C412.721 119.86 411.221 118.84 407.261 116.86C401.741 114.1 399.221 111.04 399.221 105.82C399.221 99.22 404.321 95.38 412.541 95.38C413.621 95.38 414.641 95.44 415.361 95.56C416.861 95.8 417.821 96.88 417.821 98.38C417.821 100 416.741 101.32 415.121 101.32C414.281 101.32 412.481 101.14 410.801 101.14C406.841 101.14 405.101 103.36 405.101 105.82C405.101 108.82 406.541 109.78 411.221 112.42C415.541 114.82 418.661 117.4 418.661 122.86C418.661 129.34 413.801 133.18 406.061 133.18C404.021 133.18 402.461 133.12 401.321 132.82ZM420.89 141.82V110.56C420.89 109.96 421.01 109.42 421.31 109C421.67 108.4 422.33 107.86 423.59 107.68C424.61 107.56 425.45 107.56 426.53 107.56C434.51 107.56 440.99 112 440.99 120.28C440.99 129.34 434.45 133 426.53 133V141.82C426.53 143.5 425.45 144.64 423.71 144.64C421.97 144.64 420.89 143.32 420.89 141.82ZM435.35 120.28C435.35 115 431.75 113.2 426.53 113.2V127.42C431.87 127.36 435.35 125.2 435.35 120.28ZM451.022 122.56C450.182 122.56 448.982 122.56 448.262 122.5C448.922 125.92 451.202 127.54 455.042 127.54C456.062 127.54 457.142 127.48 458.222 127.48C460.202 127.48 461.462 128.26 461.462 130.06C461.462 132.04 459.842 132.7 458.282 132.94C456.962 133.12 456.122 133.12 455.102 133.12C446.702 133.12 442.562 128.5 442.562 120.34C442.562 111.7 447.242 107.38 453.722 107.38C457.322 107.38 462.002 109.18 462.002 115C462.002 121.54 456.542 122.56 451.022 122.56ZM456.662 114.94C456.662 113.2 455.282 112.42 453.542 112.42C450.482 112.42 448.802 114.22 448.262 117.46C448.802 117.46 449.462 117.52 451.562 117.52C455.642 117.52 456.662 116.56 456.662 114.94ZM477.956 130.48V118.6C477.956 114.22 477.296 113.14 474.116 113.14C472.856 113.14 471.416 113.38 470.156 113.56V130.48C470.156 132.22 469.076 133.24 467.336 133.24C465.536 133.24 464.516 132.22 464.516 130.48V110.14C464.516 108.4 465.536 107.38 467.276 107.38C468.176 107.38 468.896 107.68 469.436 108.16C470.576 107.86 472.496 107.56 474.476 107.56C480.536 107.56 483.536 111.04 483.536 118.78V130.48C483.536 132.22 482.516 133.24 480.776 133.24C478.976 133.24 477.956 132.22 477.956 130.48ZM506.054 92.86V129.94C506.054 130.42 505.934 130.9 505.754 131.26C505.394 132.04 504.734 132.76 503.234 132.88C502.214 132.94 501.494 133 500.414 133C491.474 133 485.954 128.44 485.954 120.16C485.954 112.12 492.494 107.44 500.414 107.44V92.86C500.414 91.12 501.494 90.04 503.234 90.04C504.974 90.04 506.054 91.12 506.054 92.86ZM491.594 120.16C491.594 125.44 495.194 127.36 500.414 127.36V113.02C495.014 113.08 491.594 115.48 491.594 120.16ZM517.106 122.56C516.266 122.56 515.066 122.56 514.346 122.5C515.006 125.92 517.286 127.54 521.126 127.54C522.146 127.54 523.226 127.48 524.306 127.48C526.286 127.48 527.546 128.26 527.546 130.06C527.546 132.04 525.926 132.7 524.366 132.94C523.046 133.12 522.206 133.12 521.186 133.12C512.786 133.12 508.646 128.5 508.646 120.34C508.646 111.7 513.326 107.38 519.806 107.38C523.406 107.38 528.086 109.18 528.086 115C528.086 121.54 522.626 122.56 517.106 122.56ZM522.746 114.94C522.746 113.2 521.366 112.42 519.626 112.42C516.566 112.42 514.886 114.22 514.346 117.46C514.886 117.46 515.546 117.52 517.646 117.52C521.726 117.52 522.746 116.56 522.746 114.94ZM544.041 130.48V118.6C544.041 114.22 543.381 113.14 540.201 113.14C538.941 113.14 537.501 113.38 536.241 113.56V130.48C536.241 132.22 535.161 133.24 533.421 133.24C531.621 133.24 530.601 132.22 530.601 130.48V110.14C530.601 108.4 531.621 107.38 533.361 107.38C534.261 107.38 534.981 107.68 535.521 108.16C536.661 107.86 538.581 107.56 540.561 107.56C546.621 107.56 549.621 111.04 549.621 118.78V130.48C549.621 132.22 548.601 133.24 546.861 133.24C545.061 133.24 544.041 132.22 544.041 130.48Z" fill="#0C0C0D"/>
<path d="M575 133L950 133" stroke="black" stroke-width="4" stroke-linecap="round"/>
</svg>
