<svg width="300" height="88" viewBox="0 0 300 88" fill="none" xmlns="http://www.w3.org/2000/svg">
<path d="M100.088 40.328L88.2319 29.096V38.936C88.2319 40.136 87.3679 41.192 85.9759 41.192C84.5839 41.192 83.6719 40.28 83.6719 38.936V13.112C83.6719 11.72 84.5839 10.856 85.9759 10.856C87.3679 10.856 88.2319 11.72 88.2319 13.112V23.72L98.9839 11.912C99.5599 11.192 100.424 10.904 101.096 10.904C102.296 10.904 103.304 11.912 103.304 13.112C103.304 13.592 103.16 14.264 102.632 14.792L91.8799 26.456L103.592 37.16C104.12 37.64 104.264 38.408 104.264 38.936C104.264 40.136 103.352 41.192 102.056 41.192C101.432 41.192 100.616 40.904 100.088 40.328ZM109.958 8.84V38.984C109.958 40.376 109.094 41.192 107.702 41.192C106.262 41.192 105.446 40.376 105.446 38.984V8.84C105.446 7.448 106.262 6.632 107.654 6.632C109.094 6.632 109.958 7.448 109.958 8.84ZM119.251 32.648C118.579 32.648 117.619 32.648 117.043 32.6C117.571 35.336 119.395 36.632 122.467 36.632C123.283 36.632 124.147 36.584 125.011 36.584C126.595 36.584 127.603 37.208 127.603 38.648C127.603 40.232 126.307 40.76 125.059 40.952C124.003 41.096 123.331 41.096 122.515 41.096C115.795 41.096 112.483 37.4 112.483 30.872C112.483 23.96 116.227 20.504 121.411 20.504C124.291 20.504 128.035 21.944 128.035 26.6C128.035 31.832 123.667 32.648 119.251 32.648ZM123.763 26.552C123.763 25.16 122.659 24.536 121.267 24.536C118.819 24.536 117.475 25.976 117.043 28.568C117.475 28.568 118.003 28.616 119.683 28.616C122.947 28.616 123.763 27.848 123.763 26.552ZM135.038 22.712V38.984C135.038 40.376 134.174 41.192 132.782 41.192C131.342 41.192 130.526 40.376 130.526 38.984V22.712C130.526 21.32 131.342 20.504 132.734 20.504C134.174 20.504 135.038 21.32 135.038 22.712ZM129.95 14.744V14.312C129.95 12.68 131.198 11.48 132.782 11.48C134.366 11.48 135.614 12.68 135.614 14.312V14.744C135.614 16.424 134.366 17.576 132.782 17.576C131.198 17.576 129.95 16.424 129.95 14.744ZM153.643 8.888V38.552C153.643 38.936 153.547 39.32 153.403 39.608C153.115 40.232 152.587 40.808 151.387 40.904C150.571 40.952 149.995 41 149.131 41C141.979 41 137.563 37.352 137.563 30.728C137.563 24.296 142.795 20.552 149.131 20.552V8.888C149.131 7.496 149.995 6.632 151.387 6.632C152.779 6.632 153.643 7.496 153.643 8.888ZM142.075 30.728C142.075 34.952 144.955 36.488 149.131 36.488V25.016C144.811 25.064 142.075 26.984 142.075 30.728ZM167.092 32.216V22.712C167.092 21.32 167.908 20.504 169.348 20.504C170.74 20.504 171.556 21.32 171.556 22.712V32.072C171.556 38.648 168.964 41.192 164.116 41.192C159.268 41.192 156.868 38.504 156.868 32.072V22.712C156.868 21.32 157.684 20.504 159.076 20.504C160.516 20.504 161.332 21.32 161.332 22.712V32.216C161.332 35.624 161.908 36.92 164.164 36.92C166.42 36.92 167.092 35.576 167.092 32.216ZM185.508 38.984V29.48C185.508 25.976 184.98 25.112 182.436 25.112C181.428 25.112 180.276 25.304 179.268 25.448V38.984C179.268 40.376 178.404 41.192 177.012 41.192C175.572 41.192 174.756 40.376 174.756 38.984V22.712C174.756 21.32 175.572 20.504 176.964 20.504C177.684 20.504 178.26 20.744 178.692 21.128C179.604 20.888 181.14 20.648 182.724 20.648C187.572 20.648 189.972 23.432 189.972 29.624V38.984C189.972 40.376 189.156 41.192 187.764 41.192C186.324 41.192 185.508 40.376 185.508 38.984ZM196.034 50.216C194.786 50.072 193.49 49.496 193.49 47.912C193.49 46.472 194.498 45.8 196.082 45.8C197.09 45.8 198.146 45.896 198.962 45.896C203.378 45.896 203.954 44.696 203.954 42.344V41C197.618 41 192.386 38.072 192.386 30.824C192.386 24.2 197.57 20.552 203.954 20.552C204.818 20.552 205.49 20.552 206.306 20.648C208.082 20.888 208.418 22.088 208.466 22.76V22.952V23.144V42.2C208.466 47.48 206.066 50.312 198.578 50.312C197.762 50.312 196.85 50.312 196.034 50.216ZM196.898 30.824C196.898 34.76 199.634 36.488 203.954 36.536V25.064C199.778 25.064 196.898 26.6 196.898 30.824ZM211.26 38.36V37.928C211.26 36.296 212.508 35.096 214.092 35.096C215.676 35.096 216.924 36.296 216.924 37.928V38.36C216.924 40.04 215.676 41.192 214.092 41.192C212.508 41.192 211.26 40.04 211.26 38.36ZM112.261 76.91C111.541 76.73 111.061 76.22 111.061 75.53C111.061 74.69 111.631 74.12 112.531 74.12C112.951 74.12 113.551 74.21 115.171 74.21C116.581 74.21 117.961 73.46 117.961 71.96C117.961 70.43 117.211 69.92 115.231 68.93C112.471 67.55 111.211 66.02 111.211 63.41C111.211 60.11 113.761 58.19 117.871 58.19C118.411 58.19 118.921 58.22 119.281 58.28C120.031 58.4 120.511 58.94 120.511 59.69C120.511 60.5 119.971 61.16 119.161 61.16C118.741 61.16 117.841 61.07 117.001 61.07C115.021 61.07 114.151 62.18 114.151 63.41C114.151 64.91 114.871 65.39 117.211 66.71C119.371 67.91 120.931 69.2 120.931 71.93C120.931 75.17 118.501 77.09 114.631 77.09C113.611 77.09 112.831 77.06 112.261 76.91ZM122.345 81.41V65.78C122.345 65.48 122.405 65.21 122.555 65C122.735 64.7 123.065 64.43 123.695 64.34C124.205 64.28 124.625 64.28 125.165 64.28C129.155 64.28 132.395 66.5 132.395 70.64C132.395 75.17 129.125 77 125.165 77V81.41C125.165 82.25 124.625 82.82 123.755 82.82C122.885 82.82 122.345 82.16 122.345 81.41ZM129.575 70.64C129.575 68 127.775 67.1 125.165 67.1V74.21C127.835 74.18 129.575 73.1 129.575 70.64ZM137.711 71.78C137.291 71.78 136.691 71.78 136.331 71.75C136.661 73.46 137.801 74.27 139.721 74.27C140.231 74.27 140.771 74.24 141.311 74.24C142.301 74.24 142.931 74.63 142.931 75.53C142.931 76.52 142.121 76.85 141.341 76.97C140.681 77.06 140.261 77.06 139.751 77.06C135.551 77.06 133.481 74.75 133.481 70.67C133.481 66.35 135.821 64.19 139.061 64.19C140.861 64.19 143.201 65.09 143.201 68C143.201 71.27 140.471 71.78 137.711 71.78ZM140.531 67.97C140.531 67.1 139.841 66.71 138.971 66.71C137.441 66.71 136.601 67.61 136.331 69.23C136.601 69.23 136.931 69.26 137.981 69.26C140.021 69.26 140.531 68.78 140.531 67.97ZM151.478 75.74V69.8C151.478 67.61 151.148 67.07 149.558 67.07C148.928 67.07 148.208 67.19 147.578 67.28V75.74C147.578 76.61 147.038 77.12 146.168 77.12C145.268 77.12 144.758 76.61 144.758 75.74V65.57C144.758 64.7 145.268 64.19 146.138 64.19C146.588 64.19 146.948 64.34 147.218 64.58C147.788 64.43 148.748 64.28 149.738 64.28C152.768 64.28 154.268 66.02 154.268 69.89V75.74C154.268 76.61 153.758 77.12 152.888 77.12C151.988 77.12 151.478 76.61 151.478 75.74ZM165.827 56.93V75.47C165.827 75.71 165.767 75.95 165.677 76.13C165.497 76.52 165.167 76.88 164.417 76.94C163.907 76.97 163.547 77 163.007 77C158.537 77 155.777 74.72 155.777 70.58C155.777 66.56 159.047 64.22 163.007 64.22V56.93C163.007 56.06 163.547 55.52 164.417 55.52C165.287 55.52 165.827 56.06 165.827 56.93ZM158.597 70.58C158.597 73.22 160.397 74.18 163.007 74.18V67.01C160.307 67.04 158.597 68.24 158.597 70.58ZM171.653 71.78C171.233 71.78 170.633 71.78 170.273 71.75C170.603 73.46 171.743 74.27 173.663 74.27C174.173 74.27 174.713 74.24 175.253 74.24C176.243 74.24 176.873 74.63 176.873 75.53C176.873 76.52 176.063 76.85 175.283 76.97C174.623 77.06 174.203 77.06 173.693 77.06C169.493 77.06 167.423 74.75 167.423 70.67C167.423 66.35 169.763 64.19 173.003 64.19C174.803 64.19 177.143 65.09 177.143 68C177.143 71.27 174.413 71.78 171.653 71.78ZM174.473 67.97C174.473 67.1 173.783 66.71 172.913 66.71C171.383 66.71 170.543 67.61 170.273 69.23C170.543 69.23 170.873 69.26 171.923 69.26C173.963 69.26 174.473 68.78 174.473 67.97ZM185.42 75.74V69.8C185.42 67.61 185.09 67.07 183.5 67.07C182.87 67.07 182.15 67.19 181.52 67.28V75.74C181.52 76.61 180.98 77.12 180.11 77.12C179.21 77.12 178.7 76.61 178.7 75.74V65.57C178.7 64.7 179.21 64.19 180.08 64.19C180.53 64.19 180.89 64.34 181.16 64.58C181.73 64.43 182.69 64.28 183.68 64.28C186.71 64.28 188.21 66.02 188.21 69.89V75.74C188.21 76.61 187.7 77.12 186.83 77.12C185.93 77.12 185.42 76.61 185.42 75.74Z" fill="#0C0C0D"/>
<path d="M219.5 77L297.5 77" stroke="black" stroke-width="4" stroke-linecap="round"/>
<path d="M2.5 77L81.5 77" stroke="black" stroke-width="4" stroke-linecap="round"/>
</svg>
