<svg width="64" height="64" viewBox="0 0 64 64" fill="none" xmlns="http://www.w3.org/2000/svg">
<rect width="64" height="64" fill="white"/>
<path d="M32.1666 15.2667C34.3783 15.2667 36.4722 16.9437 38.0367 19.8593C39.5923 22.7583 40.5666 26.7907 40.5666 31.2667C40.5666 35.7427 39.5923 39.7752 38.0367 42.6742C36.4722 45.5898 34.3783 47.2667 32.1666 47.2667C29.955 47.2667 27.861 45.5898 26.2966 42.6742C24.741 39.7752 23.7666 35.7427 23.7666 31.2667C23.7666 26.7907 24.741 22.7583 26.2966 19.8593C27.861 16.9437 29.955 15.2667 32.1666 15.2667Z" stroke="black" stroke-width="0.8"/>
<circle cx="31.7667" cy="31.2667" r="16" stroke="black" stroke-width="0.8"/>
<circle cx="31.7667" cy="31.2667" r="16" stroke="black" stroke-width="0.8"/>
<mask id="mask0_142_4953" style="mask-type:alpha" maskUnits="userSpaceOnUse" x="15" y="14" width="34" height="34">
<circle cx="31.7667" cy="31.2667" r="16.4" fill="#D9D9D9"/>
</mask>
<g mask="url(#mask0_142_4953)">
<path d="M31.7667 40.0667C36.2454 40.0667 40.2804 40.9974 43.1809 42.4831C46.1027 43.9796 47.7667 45.9752 47.7667 48.0667C47.7667 50.1583 46.1027 52.1539 43.1809 53.6504C40.2804 55.1361 36.2454 56.0667 31.7667 56.0667C27.288 56.0667 23.253 55.1361 20.3525 53.6504C17.4307 52.1539 15.7667 50.1583 15.7667 48.0667C15.7667 45.9752 17.4307 43.9796 20.3525 42.4831C23.253 40.9974 27.288 40.0667 31.7667 40.0667Z" stroke="black" stroke-width="0.8"/>
<path d="M31.7667 7.26669C36.2454 7.26669 40.2804 8.19737 43.1809 9.68301C46.1027 11.1795 47.7667 13.1752 47.7667 15.2667C47.7667 17.3582 46.1027 19.3538 43.1809 20.8504C40.2804 22.336 36.2454 23.2667 31.7667 23.2667C27.288 23.2667 23.253 22.336 20.3525 20.8504C17.4307 19.3538 15.7667 17.3582 15.7667 15.2667C15.7667 13.1752 17.4307 11.1795 20.3525 9.68301C23.253 8.19737 27.288 7.26669 31.7667 7.26669Z" stroke="black" stroke-width="0.8"/>
</g>
<circle cx="12.7889" cy="18.6889" r="1.42222" fill="black"/>
<circle cx="47.1889" cy="41.889" r="1.42222" fill="black"/>
<circle cx="1.42222" cy="1.42222" r="1.42222" transform="matrix(-1 0 0 1 17.7667 40.4667)" fill="black"/>
<circle cx="1.42222" cy="1.42222" r="1.42222" transform="matrix(-1 0 0 1 52.9666 17.2667)" fill="black"/>
<circle cx="16.3443" cy="20.8222" r="1.42222" fill="black"/>
<circle cx="50.7443" cy="44.0222" r="1.42222" fill="black"/>
<circle cx="1.42222" cy="1.42222" r="1.42222" transform="matrix(-1 0 0 1 14.2112 42.6)" fill="black"/>
<circle cx="1.42222" cy="1.42222" r="1.42222" transform="matrix(-1 0 0 1 49.4112 19.4)" fill="black"/>
<path d="M14.5667 14.0667L19.0921 18.5922" stroke="black" stroke-linecap="round"/>
<path d="M9.76666 21.751L15.4983 24.5985" stroke="black" stroke-linecap="round"/>
<path d="M9.76666 41.8165L15.4983 38.969" stroke="black" stroke-linecap="round"/>
<path d="M48.1666 24.2165L53.8983 21.3691" stroke="black" stroke-linecap="round"/>
<path d="M48.1666 38.7963L53.8983 41.6437" stroke="black" stroke-linecap="round"/>
<path d="M44.1667 43.6667L48.6922 48.1922" stroke="black" stroke-linecap="round"/>
<path d="M15.3667 48.4667L19.8922 43.9413" stroke="black" stroke-linecap="round"/>
<path d="M44.9667 18.8667L49.4922 14.3412" stroke="black" stroke-linecap="round"/>
<path d="M4.69997 31.8608C4.69997 33.3336 5.89388 34.5275 7.36664 34.5275C8.8394 34.5275 10.0333 33.3336 10.0333 31.8608C10.0333 30.3881 8.8394 29.1942 7.36664 29.1942C5.89388 29.1942 4.69997 30.3881 4.69997 31.8608ZM13.7666 32.3608C14.0428 32.3608 14.2666 32.137 14.2666 31.8608C14.2666 31.5847 14.0428 31.3608 13.7666 31.3608V32.3608ZM7.36664 32.3608H13.7666V31.3608H7.36664V32.3608Z" fill="black"/>
<path d="M20.9667 31.6667L16.1667 31.6667" stroke="black" stroke-width="0.8" stroke-linecap="round"/>
<path d="M32.1667 20.4667L32.1667 15.6667" stroke="black" stroke-width="0.8" stroke-linecap="round"/>
<path d="M32.1667 46.8668L32.1667 42.0668" stroke="black" stroke-width="0.8" stroke-linecap="round"/>
<path d="M47.3666 31.6667L42.5666 31.6667" stroke="black" stroke-width="0.8" stroke-linecap="round"/>
<path d="M59.2216 31.8608C59.2216 33.3336 58.0277 34.5275 56.5549 34.5275C55.0822 34.5275 53.8883 33.3336 53.8883 31.8608C53.8883 30.3881 55.0822 29.1942 56.5549 29.1942C58.0277 29.1942 59.2216 30.3881 59.2216 31.8608ZM50.1549 32.3608C49.8788 32.3608 49.6549 32.137 49.6549 31.8608C49.6549 31.5847 49.8788 31.3608 50.1549 31.3608V32.3608ZM56.5549 32.3608H50.1549V31.3608H56.5549V32.3608Z" fill="black"/>
<path d="M29.93 37.2667H31.6388V30.6449L30.1436 28.9361L28.6483 29.7905L27.3667 36.6259L28.6483 37.0531L29.7164 31.2858L29.93 37.2667Z" fill="black"/>
<path d="M34.2021 37.2667H32.4932V30.6449L33.9885 28.9361L35.4837 29.7905L36.7654 36.6259L35.4837 37.0531L34.4157 31.2858L34.2021 37.2667Z" fill="black"/>
<path d="M30.5708 28.5089L32.066 30.2177L33.3477 28.5089L32.066 27.8681L30.5708 28.5089Z" fill="black"/>
<path d="M29.93 37.2667L29.7165 37.2743C29.7206 37.3893 29.815 37.4803 29.93 37.4803V37.2667ZM31.6388 37.2667V37.4803C31.7568 37.4803 31.8524 37.3847 31.8524 37.2667H31.6388ZM31.6388 30.6449H31.8524C31.8524 30.5932 31.8336 30.5432 31.7996 30.5043L31.6388 30.6449ZM30.1436 28.9361L30.3043 28.7954C30.2374 28.7189 30.1258 28.7002 30.0376 28.7506L30.1436 28.9361ZM28.6483 29.7905L28.5424 29.605C28.4879 29.6361 28.4499 29.6896 28.4384 29.7511L28.6483 29.7905ZM27.3667 36.6259L27.1568 36.5865C27.1371 36.6914 27.1979 36.7948 27.2992 36.8285L27.3667 36.6259ZM28.6483 37.0531L28.5808 37.2558C28.6394 37.2753 28.7036 37.2685 28.7569 37.2371C28.8101 37.2057 28.8471 37.1528 28.8584 37.092L28.6483 37.0531ZM29.7164 31.2858L29.9298 31.2781C29.9259 31.1693 29.8407 31.0807 29.7321 31.0727C29.6234 31.0647 29.5262 31.1397 29.5063 31.2469L29.7164 31.2858ZM34.2021 37.2667V37.4803C34.3171 37.4803 34.4115 37.3893 34.4156 37.2743L34.2021 37.2667ZM32.4932 37.2667H32.2796C32.2796 37.3847 32.3753 37.4803 32.4932 37.4803V37.2667ZM32.4932 30.6449L32.3325 30.5043C32.2984 30.5432 32.2796 30.5932 32.2796 30.6449H32.4932ZM33.9885 28.9361L34.0945 28.7506C34.0062 28.7002 33.8947 28.7189 33.8277 28.7954L33.9885 28.9361ZM35.4837 29.7905L35.6937 29.7511C35.6821 29.6896 35.6441 29.6361 35.5897 29.605L35.4837 29.7905ZM36.7654 36.6259L36.8329 36.8285C36.9342 36.7948 36.995 36.6914 36.9753 36.5865L36.7654 36.6259ZM35.4837 37.0531L35.2737 37.092C35.2849 37.1528 35.322 37.2057 35.3752 37.2371C35.4284 37.2685 35.4926 37.2753 35.5513 37.2558L35.4837 37.0531ZM34.4157 31.2858L34.6257 31.2469C34.6059 31.1397 34.5086 31.0647 34.4 31.0727C34.2913 31.0807 34.2061 31.1693 34.2022 31.2781L34.4157 31.2858ZM30.5708 28.5089L30.4866 28.3125C30.4238 28.3395 30.3777 28.3949 30.3625 28.4615C30.3473 28.5282 30.365 28.5981 30.41 28.6495L30.5708 28.5089ZM32.066 30.2177L31.9053 30.3584C31.9477 30.4069 32.0097 30.4336 32.0741 30.4312C32.1384 30.4288 32.1983 30.3974 32.2369 30.3459L32.066 30.2177ZM33.3477 28.5089L33.5185 28.637C33.5566 28.5864 33.5701 28.5214 33.5556 28.4598C33.541 28.3982 33.4998 28.3461 33.4432 28.3178L33.3477 28.5089ZM32.066 27.8681L32.1616 27.677C32.1478 27.6701 32.1334 27.6648 32.1185 27.661L32.066 27.8681ZM31.4252 27.4409L31.2389 27.5454L31.4252 27.4409ZM32.9205 26.8C32.9205 26.918 33.0161 27.0136 33.1341 27.0136C33.252 27.0136 33.3477 26.918 33.3477 26.8H32.9205ZM31.4252 26.3728L31.5572 26.5408L31.5672 26.5329L31.5762 26.5239L31.4252 26.3728ZM29.93 37.4803H31.6388V37.0531H29.93V37.4803ZM31.8524 37.2667V30.6449H31.4252V37.2667H31.8524ZM31.7996 30.5043L30.3043 28.7954L29.9828 29.0767L31.4781 30.7856L31.7996 30.5043ZM30.0376 28.7506L28.5424 29.605L28.7543 29.976L30.2496 29.1215L30.0376 28.7506ZM28.4384 29.7511L27.1568 36.5865L27.5766 36.6653L28.8583 29.8299L28.4384 29.7511ZM27.2992 36.8285L28.5808 37.2558L28.7159 36.8505L27.4342 36.4233L27.2992 36.8285ZM28.8584 37.092L29.9264 31.3246L29.5063 31.2469L28.4383 37.0142L28.8584 37.092ZM29.5029 31.2934L29.7165 37.2743L30.1434 37.2591L29.9298 31.2781L29.5029 31.2934ZM34.2021 37.0531H32.4932V37.4803H34.2021V37.0531ZM32.7068 37.2667V30.6449H32.2796V37.2667H32.7068ZM32.654 30.7856L34.1492 29.0767L33.8277 28.7954L32.3325 30.5043L32.654 30.7856ZM33.8825 29.1215L35.3777 29.976L35.5897 29.605L34.0945 28.7506L33.8825 29.1215ZM35.2738 29.8299L36.5554 36.6653L36.9753 36.5865L35.6937 29.7511L35.2738 29.8299ZM36.6978 36.4233L35.4162 36.8505L35.5513 37.2558L36.8329 36.8285L36.6978 36.4233ZM35.6938 37.0142L34.6257 31.2469L34.2057 31.3246L35.2737 37.092L35.6938 37.0142ZM34.2022 31.2781L33.9886 37.2591L34.4156 37.2743L34.6292 31.2934L34.2022 31.2781ZM30.41 28.6495L31.9053 30.3584L32.2268 30.0771L30.7315 28.3682L30.41 28.6495ZM32.2369 30.3459L33.5185 28.637L33.1768 28.3807L31.8951 30.0896L32.2369 30.3459ZM33.4432 28.3178L32.1616 27.677L31.9705 28.0591L33.2521 28.6999L33.4432 28.3178ZM31.9819 27.6717L30.4866 28.3125L30.6549 28.7052L32.1502 28.0644L31.9819 27.6717ZM32.066 27.8681C32.1185 27.661 32.1186 27.661 32.1186 27.661C32.1186 27.661 32.1187 27.661 32.1187 27.661C32.1188 27.6611 32.1188 27.6611 32.1189 27.6611C32.1189 27.6611 32.119 27.6611 32.119 27.6611C32.1191 27.6612 32.1191 27.6611 32.1189 27.6611C32.1186 27.661 32.1179 27.6608 32.1168 27.6605C32.1146 27.6599 32.1108 27.6589 32.1056 27.6574C32.0952 27.6543 32.0794 27.6494 32.0594 27.6426C32.0193 27.6289 31.9642 27.6077 31.9049 27.5786C31.7796 27.5169 31.6664 27.4341 31.6115 27.3364L31.2389 27.5454C31.3572 27.7563 31.5644 27.8871 31.7162 27.9618C31.7955 28.0009 31.8681 28.0287 31.9211 28.0468C31.9477 28.0559 31.9697 28.0627 31.9856 28.0674C31.9935 28.0697 31.9999 28.0715 32.0047 28.0728C32.007 28.0734 32.009 28.0739 32.0104 28.0743C32.0112 28.0745 32.0118 28.0747 32.0123 28.0748C32.0126 28.0749 32.0128 28.0749 32.013 28.075C32.0131 28.075 32.0132 28.075 32.0133 28.0751C32.0134 28.0751 32.0134 28.0751 32.0134 28.0751C32.0135 28.0751 32.0135 28.0751 32.066 27.8681ZM31.6115 27.3364C31.4976 27.1332 31.4315 26.9679 31.4214 26.8356C31.4128 26.7226 31.4435 26.6301 31.5572 26.5408L31.2932 26.2048C31.0628 26.3859 30.9765 26.6188 30.9954 26.868C31.0129 27.0978 31.1188 27.3313 31.2389 27.5454L31.6115 27.3364ZM31.5762 26.5239C31.576 26.5241 31.5776 26.5225 31.5818 26.5191C31.5859 26.5159 31.5916 26.5116 31.5992 26.5065C31.6144 26.4963 31.6348 26.484 31.6603 26.4704C31.7115 26.4432 31.7779 26.4135 31.8548 26.3858C32.01 26.3298 32.1943 26.2864 32.3666 26.2809C32.5418 26.2753 32.6777 26.3095 32.766 26.3781C32.8449 26.4395 32.9205 26.5557 32.9205 26.8H33.3477C33.3477 26.4591 33.2363 26.2026 33.0282 26.0408C32.8294 25.8862 32.5781 25.8467 32.3529 25.8539C32.1246 25.8612 31.8951 25.9171 31.7099 25.9839C31.6165 26.0176 31.5311 26.0552 31.4596 26.0933C31.3921 26.1292 31.3233 26.1726 31.2742 26.2218L31.5762 26.5239Z" fill="black"/>
<circle cx="31.7" cy="9.2" r="3.2" fill="black"/>
<circle cx="31.7" cy="53.2" r="3.2" fill="black"/>
</svg>
