<svg width="98" height="96" viewBox="0 0 98 96" fill="none" xmlns="http://www.w3.org/2000/svg">
<rect width="96" height="96" transform="translate(1)" fill="white"/>
<path d="M49 19.5C51.7646 19.5 54.382 21.5962 56.3376 25.2407C58.282 28.8645 59.5 33.905 59.5 39.5C59.5 45.095 58.282 50.1355 56.3376 53.7593C54.382 57.4038 51.7646 59.5 49 59.5C46.2354 59.5 43.618 57.4038 41.6624 53.7593C39.718 50.1355 38.5 45.095 38.5 39.5C38.5 33.905 39.718 28.8645 41.6624 25.2407C43.618 21.5962 46.2354 19.5 49 19.5Z" stroke="black"/>
<circle cx="48.5" cy="39.5" r="20" stroke="black"/>
<circle cx="48.5" cy="39.5" r="20" stroke="black"/>
<mask id="mask0_116_6177" style="mask-type:alpha" maskUnits="userSpaceOnUse" x="28" y="19" width="41" height="41">
<circle cx="48.5" cy="39.5" r="20.5" fill="#D9D9D9"/>
</mask>
<g mask="url(#mask0_116_6177)">
<path d="M48.5 50.5C54.0984 50.5 59.1421 51.6633 62.7677 53.5204C66.42 55.3911 68.5 57.8856 68.5 60.5C68.5 63.1144 66.42 65.6089 62.7677 67.4796C59.1421 69.3367 54.0984 70.5 48.5 70.5C42.9016 70.5 37.8579 69.3367 34.2322 67.4796C30.58 65.6089 28.5 63.1144 28.5 60.5C28.5 57.8856 30.58 55.3911 34.2322 53.5204C37.8579 51.6633 42.9016 50.5 48.5 50.5Z" stroke="black"/>
<path d="M48.5 9.5C54.0984 9.5 59.1421 10.6633 62.7677 12.5204C66.42 14.3911 68.5 16.8856 68.5 19.5C68.5 22.1144 66.42 24.6089 62.7677 26.4796C59.1421 28.3367 54.0984 29.5 48.5 29.5C42.9016 29.5 37.8579 28.3367 34.2322 26.4796C30.58 24.6089 28.5 22.1144 28.5 19.5C28.5 16.8856 30.58 14.3911 34.2322 12.5204C37.8579 10.6633 42.9016 9.5 48.5 9.5Z" stroke="black"/>
</g>
<circle cx="24.7778" cy="23.7778" r="1.77778" fill="black"/>
<circle cx="67.7778" cy="52.7778" r="1.77778" fill="black"/>
<circle cx="1.77778" cy="1.77778" r="1.77778" transform="matrix(-1 0 0 1 31 51)" fill="black"/>
<circle cx="1.77778" cy="1.77778" r="1.77778" transform="matrix(-1 0 0 1 75 22)" fill="black"/>
<circle cx="29.2221" cy="26.4444" r="1.77778" fill="black"/>
<circle cx="72.2221" cy="55.4444" r="1.77778" fill="black"/>
<circle cx="1.77778" cy="1.77778" r="1.77778" transform="matrix(-1 0 0 1 26.5557 53.6666)" fill="black"/>
<circle cx="1.77778" cy="1.77778" r="1.77778" transform="matrix(-1 0 0 1 70.5557 24.6666)" fill="black"/>
<path d="M27 18L32.6569 23.6569" stroke="black" stroke-linecap="round"/>
<path d="M21 27.6053L28.1646 31.1646" stroke="black" stroke-linecap="round"/>
<path d="M21 52.6872L28.1646 49.1279" stroke="black" stroke-linecap="round"/>
<path d="M69 30.6872L76.1646 27.1279" stroke="black" stroke-linecap="round"/>
<path d="M69 48.912L76.1646 52.4713" stroke="black" stroke-linecap="round"/>
<path d="M64 55L69.6569 60.6569" stroke="black" stroke-linecap="round"/>
<path d="M28 61L33.6569 55.3431" stroke="black" stroke-linecap="round"/>
<path d="M65 24L70.6569 18.3431" stroke="black" stroke-linecap="round"/>
<path d="M15.3333 40.2426C15.3333 41.7154 16.5272 42.9093 18 42.9093C19.4728 42.9093 20.6667 41.7154 20.6667 40.2426C20.6667 38.7699 19.4728 37.5759 18 37.5759C16.5272 37.5759 15.3333 38.7699 15.3333 40.2426ZM26 40.7426C26.2761 40.7426 26.5 40.5188 26.5 40.2426C26.5 39.9665 26.2761 39.7426 26 39.7426V40.7426ZM18 40.7426H26V39.7426H18V40.7426Z" fill="black"/>
<path d="M35 40L29 40" stroke="black" stroke-linecap="round"/>
<path d="M49 26L49 20" stroke="black" stroke-linecap="round"/>
<path d="M49 59L49 53" stroke="black" stroke-linecap="round"/>
<path d="M68 40L62 40" stroke="black" stroke-linecap="round"/>
<path d="M82.152 40.2426C82.152 41.7154 80.958 42.9093 79.4853 42.9093C78.0125 42.9093 76.8186 41.7154 76.8186 40.2426C76.8186 38.7699 78.0125 37.5759 79.4853 37.5759C80.958 37.5759 82.152 38.7699 82.152 40.2426ZM71.4853 40.7426C71.2091 40.7426 70.9853 40.5188 70.9853 40.2426C70.9853 39.9665 71.2091 39.7426 71.4853 39.7426V40.7426ZM79.4853 40.7426H71.4853V39.7426H79.4853V40.7426Z" fill="black"/>
<path d="M46.2041 47H48.3401V38.7228L46.4711 36.5867L44.602 37.6547L43 46.199L44.602 46.733L45.9371 39.5238L46.2041 47Z" fill="black"/>
<path d="M51.5442 47H49.4082V38.7228L51.2772 36.5867L53.1463 37.6547L54.7483 46.199L53.1463 46.733L51.8112 39.5238L51.5442 47Z" fill="black"/>
<path d="M47.0051 36.0527L48.8742 38.1888L50.4762 36.0527L48.8742 35.2517L47.0051 36.0527Z" fill="black"/>
<path d="M46.2041 47L45.9373 47.0095C45.9424 47.1532 46.0603 47.267 46.2041 47.267V47ZM48.3401 47V47.267C48.4876 47.267 48.6072 47.1475 48.6072 47H48.3401ZM48.3401 38.7228H48.6072C48.6072 38.6581 48.5837 38.5956 48.5411 38.5469L48.3401 38.7228ZM46.4711 36.5867L46.672 36.4109C46.5884 36.3153 46.4489 36.2919 46.3386 36.3549L46.4711 36.5867ZM44.602 37.6547L44.4696 37.4229C44.4016 37.4618 44.354 37.5285 44.3396 37.6055L44.602 37.6547ZM43 46.199L42.7376 46.1498C42.713 46.2809 42.789 46.4101 42.9156 46.4523L43 46.199ZM44.602 46.733L44.5176 46.9863C44.5909 47.0107 44.6712 47.0022 44.7377 46.963C44.8042 46.9237 44.8505 46.8576 44.8646 46.7816L44.602 46.733ZM45.9371 39.5238L46.2039 39.5143C46.1991 39.3782 46.0926 39.2675 45.9567 39.2575C45.8209 39.2475 45.6993 39.3413 45.6745 39.4752L45.9371 39.5238ZM51.5442 47V47.267C51.688 47.267 51.8059 47.1532 51.8111 47.0095L51.5442 47ZM49.4082 47H49.1412C49.1412 47.1475 49.2607 47.267 49.4082 47.267V47ZM49.4082 38.7228L49.2072 38.5469C49.1646 38.5956 49.1412 38.6581 49.1412 38.7228H49.4082ZM51.2772 36.5867L51.4097 36.3549C51.2994 36.2919 51.1599 36.3153 51.0763 36.4109L51.2772 36.5867ZM53.1463 37.6547L53.4087 37.6055C53.3943 37.5285 53.3468 37.4618 53.2788 37.4229L53.1463 37.6547ZM54.7483 46.199L54.8328 46.4523C54.9593 46.4101 55.0353 46.2809 55.0108 46.1498L54.7483 46.199ZM53.1463 46.733L52.8837 46.7816C52.8978 46.8576 52.9441 46.9237 53.0106 46.963C53.0772 47.0022 53.1574 47.0107 53.2307 46.9863L53.1463 46.733ZM51.8112 39.5238L52.0738 39.4752C52.049 39.3413 51.9274 39.2475 51.7916 39.2575C51.6558 39.2675 51.5493 39.3782 51.5444 39.5143L51.8112 39.5238ZM47.0051 36.0527L46.8999 35.8073C46.8214 35.841 46.7637 35.9102 46.7447 35.9935C46.7258 36.0768 46.7479 36.1642 46.8042 36.2285L47.0051 36.0527ZM48.8742 38.1888L48.6732 38.3646C48.7262 38.4252 48.8038 38.4586 48.8842 38.4556C48.9647 38.4526 49.0395 38.4134 49.0878 38.349L48.8742 38.1888ZM50.4762 36.0527L50.6898 36.2129C50.7373 36.1496 50.7543 36.0684 50.7361 35.9914C50.7179 35.9143 50.6664 35.8493 50.5956 35.8139L50.4762 36.0527ZM48.8742 35.2517L48.9936 35.0129C48.9764 35.0043 48.9584 34.9976 48.9398 34.9929L48.8742 35.2517ZM48.0731 34.7177L47.8403 34.8483L48.0731 34.7177ZM49.9422 33.9167C49.9422 34.0641 50.0617 34.1837 50.2092 34.1837C50.3567 34.1837 50.4762 34.0641 50.4762 33.9167H49.9422ZM48.0731 33.3826L48.2381 33.5926L48.2506 33.5827L48.2619 33.5714L48.0731 33.3826ZM46.2041 47.267H48.3401V46.733H46.2041V47.267ZM48.6072 47V38.7228H48.0731V47H48.6072ZM48.5411 38.5469L46.672 36.4109L46.2702 36.7625L48.1392 38.8986L48.5411 38.5469ZM46.3386 36.3549L44.4696 37.4229L44.7345 37.8866L46.6036 36.8185L46.3386 36.3549ZM44.3396 37.6055L42.7376 46.1498L43.2624 46.2482L44.8645 37.704L44.3396 37.6055ZM42.9156 46.4523L44.5176 46.9863L44.6865 46.4797L43.0844 45.9457L42.9156 46.4523ZM44.8646 46.7816L46.1996 39.5724L45.6745 39.4752L44.3395 46.6844L44.8646 46.7816ZM45.6702 39.5333L45.9373 47.0095L46.4709 46.9905L46.2039 39.5143L45.6702 39.5333ZM51.5442 46.733H49.4082V47.267H51.5442V46.733ZM49.6752 47V38.7228H49.1412V47H49.6752ZM49.6091 38.8986L51.4782 36.7625L51.0763 36.4109L49.2072 38.5469L49.6091 38.8986ZM51.1448 36.8185L53.0138 37.8866L53.2788 37.4229L51.4097 36.3549L51.1448 36.8185ZM52.8838 37.704L54.4859 46.2482L55.0108 46.1498L53.4087 37.6055L52.8838 37.704ZM54.6639 45.9457L53.0618 46.4797L53.2307 46.9863L54.8328 46.4523L54.6639 45.9457ZM53.4088 46.6844L52.0738 39.4752L51.5487 39.5724L52.8837 46.7816L53.4088 46.6844ZM51.5444 39.5143L51.2774 46.9905L51.8111 47.0095L52.0781 39.5333L51.5444 39.5143ZM46.8042 36.2285L48.6732 38.3646L49.0751 38.0129L47.2061 35.8769L46.8042 36.2285ZM49.0878 38.349L50.6898 36.2129L50.2626 35.8925L48.6606 38.0286L49.0878 38.349ZM50.5956 35.8139L48.9936 35.0129L48.7548 35.4905L50.3568 36.2915L50.5956 35.8139ZM48.769 35.0063L46.8999 35.8073L47.1103 36.2981L48.9793 35.4971L48.769 35.0063ZM48.8742 35.2517C48.9398 34.9929 48.9398 34.9929 48.9399 34.9929C48.9399 34.9929 48.94 34.9929 48.94 34.9929C48.9401 34.9929 48.9401 34.993 48.9402 34.993C48.9403 34.993 48.9404 34.993 48.9404 34.993C48.9405 34.9931 48.9405 34.993 48.9403 34.993C48.9399 34.9929 48.939 34.9927 48.9376 34.9923C48.9349 34.9915 48.9301 34.9902 48.9237 34.9883C48.9107 34.9845 48.8908 34.9784 48.8659 34.9699C48.8157 34.9527 48.7468 34.9263 48.6728 34.8898C48.5161 34.8127 48.3746 34.7093 48.306 34.5871L47.8403 34.8483C47.9882 35.1119 48.2471 35.2755 48.4369 35.3689C48.536 35.4177 48.6268 35.4525 48.693 35.4751C48.7262 35.4865 48.7537 35.495 48.7736 35.5008C48.7835 35.5037 48.7915 35.506 48.7974 35.5076C48.8004 35.5084 48.8028 35.509 48.8047 35.5095C48.8056 35.5097 48.8064 35.51 48.807 35.5101C48.8074 35.5102 48.8077 35.5103 48.8079 35.5103C48.808 35.5104 48.8082 35.5104 48.8083 35.5104C48.8083 35.5104 48.8084 35.5105 48.8084 35.5105C48.8085 35.5105 48.8086 35.5105 48.8742 35.2517ZM48.306 34.5871C48.1636 34.3332 48.0809 34.1265 48.0684 33.9611C48.0576 33.8198 48.096 33.7042 48.2381 33.5926L47.9082 33.1727C47.6202 33.3989 47.5122 33.6901 47.5359 34.0016C47.5577 34.2889 47.6902 34.5807 47.8403 34.8483L48.306 34.5871ZM48.2619 33.5714C48.2617 33.5717 48.2637 33.5697 48.2689 33.5655C48.274 33.5614 48.2812 33.5562 48.2906 33.5498C48.3096 33.5369 48.3351 33.5216 48.367 33.5046C48.431 33.4706 48.514 33.4335 48.6101 33.3988C48.8041 33.3289 49.0345 33.2746 49.2498 33.2677C49.4689 33.2607 49.6388 33.3034 49.7491 33.3892C49.8478 33.466 49.9422 33.6112 49.9422 33.9167H50.4762C50.4762 33.4905 50.337 33.1699 50.0769 32.9676C49.8284 32.7744 49.5143 32.725 49.2328 32.734C48.9474 32.7431 48.6605 32.813 48.4289 32.8965C48.3123 32.9386 48.2055 32.9856 48.1161 33.0332C48.0318 33.0781 47.9458 33.1324 47.8843 33.1938L48.2619 33.5714Z" fill="black"/>
<path d="M26.1033 76.72L21.1633 72.04V76.14C21.1633 76.64 20.8033 77.08 20.2233 77.08C19.6433 77.08 19.2633 76.7 19.2633 76.14V65.38C19.2633 64.8 19.6433 64.44 20.2233 64.44C20.8033 64.44 21.1633 64.8 21.1633 65.38V69.8L25.6433 64.88C25.8833 64.58 26.2433 64.46 26.5233 64.46C27.0233 64.46 27.4433 64.88 27.4433 65.38C27.4433 65.58 27.3833 65.86 27.1633 66.08L22.6833 70.94L27.5633 75.4C27.7833 75.6 27.8433 75.92 27.8433 76.14C27.8433 76.64 27.4633 77.08 26.9233 77.08C26.6633 77.08 26.3233 76.96 26.1033 76.72ZM30.6159 63.6V76.16C30.6159 76.74 30.2559 77.08 29.6759 77.08C29.0759 77.08 28.7359 76.74 28.7359 76.16V63.6C28.7359 63.02 29.0759 62.68 29.6559 62.68C30.2559 62.68 30.6159 63.02 30.6159 63.6ZM34.8878 73.52C34.6078 73.52 34.2078 73.52 33.9678 73.5C34.1878 74.64 34.9478 75.18 36.2278 75.18C36.5678 75.18 36.9278 75.16 37.2878 75.16C37.9478 75.16 38.3678 75.42 38.3678 76.02C38.3678 76.68 37.8278 76.9 37.3078 76.98C36.8678 77.04 36.5878 77.04 36.2478 77.04C33.4478 77.04 32.0678 75.5 32.0678 72.78C32.0678 69.9 33.6278 68.46 35.7878 68.46C36.9878 68.46 38.5478 69.06 38.5478 71C38.5478 73.18 36.7278 73.52 34.8878 73.52ZM36.7678 70.98C36.7678 70.4 36.3078 70.14 35.7278 70.14C34.7078 70.14 34.1478 70.74 33.9678 71.82C34.1478 71.82 34.3678 71.84 35.0678 71.84C36.4278 71.84 36.7678 71.52 36.7678 70.98ZM41.8659 69.38V76.16C41.8659 76.74 41.5059 77.08 40.9259 77.08C40.3259 77.08 39.9859 76.74 39.9859 76.16V69.38C39.9859 68.8 40.3259 68.46 40.9059 68.46C41.5059 68.46 41.8659 68.8 41.8659 69.38ZM39.7459 66.06V65.88C39.7459 65.2 40.2659 64.7 40.9259 64.7C41.5859 64.7 42.1059 65.2 42.1059 65.88V66.06C42.1059 66.76 41.5859 67.24 40.9259 67.24C40.2659 67.24 39.7459 66.76 39.7459 66.06ZM50.0178 63.62V75.98C50.0178 76.14 49.9778 76.3 49.9178 76.42C49.7978 76.68 49.5778 76.92 49.0778 76.96C48.7378 76.98 48.4978 77 48.1378 77C45.1578 77 43.3178 75.48 43.3178 72.72C43.3178 70.04 45.4978 68.48 48.1378 68.48V63.62C48.1378 63.04 48.4978 62.68 49.0778 62.68C49.6578 62.68 50.0178 63.04 50.0178 63.62ZM45.1978 72.72C45.1978 74.48 46.3978 75.12 48.1378 75.12V70.34C46.3378 70.36 45.1978 71.16 45.1978 72.72ZM56.0219 73.34V69.38C56.0219 68.8 56.3619 68.46 56.9619 68.46C57.5419 68.46 57.8819 68.8 57.8819 69.38V73.28C57.8819 76.02 56.8019 77.08 54.7819 77.08C52.7619 77.08 51.7619 75.96 51.7619 73.28V69.38C51.7619 68.8 52.1019 68.46 52.6819 68.46C53.2819 68.46 53.6219 68.8 53.6219 69.38V73.34C53.6219 74.76 53.8619 75.3 54.8019 75.3C55.7419 75.3 56.0219 74.74 56.0219 73.34ZM64.0948 76.16V72.2C64.0948 70.74 63.8748 70.38 62.8148 70.38C62.3948 70.38 61.9148 70.46 61.4948 70.52V76.16C61.4948 76.74 61.1348 77.08 60.5548 77.08C59.9548 77.08 59.6148 76.74 59.6148 76.16V69.38C59.6148 68.8 59.9548 68.46 60.5348 68.46C60.8348 68.46 61.0748 68.56 61.2548 68.72C61.6348 68.62 62.2748 68.52 62.9348 68.52C64.9548 68.52 65.9548 69.68 65.9548 72.26V76.16C65.9548 76.74 65.6148 77.08 65.0348 77.08C64.4348 77.08 64.0948 76.74 64.0948 76.16ZM68.8808 80.84C68.3608 80.78 67.8208 80.54 67.8208 79.88C67.8208 79.28 68.2408 79 68.9008 79C69.3208 79 69.7608 79.04 70.1008 79.04C71.9408 79.04 72.1808 78.54 72.1808 77.56V77C69.5408 77 67.3608 75.78 67.3608 72.76C67.3608 70 69.5208 68.48 72.1808 68.48C72.5408 68.48 72.8208 68.48 73.1608 68.52C73.9008 68.62 74.0408 69.12 74.0608 69.4V69.48V69.56V77.5C74.0608 79.7 73.0608 80.88 69.9408 80.88C69.6008 80.88 69.2208 80.88 68.8808 80.84ZM69.2408 72.76C69.2408 74.4 70.3808 75.12 72.1808 75.14V70.36C70.4408 70.36 69.2408 71 69.2408 72.76ZM75.6248 75.9V75.72C75.6248 75.04 76.1448 74.54 76.8048 74.54C77.4648 74.54 77.9848 75.04 77.9848 75.72V75.9C77.9848 76.6 77.4648 77.08 76.8048 77.08C76.1448 77.08 75.6248 76.6 75.6248 75.9ZM27.4124 90.952C27.0284 90.856 26.7724 90.584 26.7724 90.216C26.7724 89.768 27.0764 89.464 27.5564 89.464C27.7804 89.464 28.1004 89.512 28.9644 89.512C29.7164 89.512 30.4524 89.112 30.4524 88.312C30.4524 87.496 30.0524 87.224 28.9964 86.696C27.5244 85.96 26.8524 85.144 26.8524 83.752C26.8524 81.992 28.2124 80.968 30.4044 80.968C30.6924 80.968 30.9644 80.984 31.1564 81.016C31.5564 81.08 31.8124 81.368 31.8124 81.768C31.8124 82.2 31.5244 82.552 31.0924 82.552C30.8684 82.552 30.3884 82.504 29.9404 82.504C28.8844 82.504 28.4204 83.096 28.4204 83.752C28.4204 84.552 28.8044 84.808 30.0524 85.512C31.2044 86.152 32.0364 86.84 32.0364 88.296C32.0364 90.024 30.7404 91.048 28.6764 91.048C28.1324 91.048 27.7164 91.032 27.4124 90.952ZM33.1106 93.352V85.016C33.1106 84.856 33.1426 84.712 33.2226 84.6C33.3186 84.44 33.4946 84.296 33.8306 84.248C34.1026 84.216 34.3266 84.216 34.6146 84.216C36.7426 84.216 38.4706 85.4 38.4706 87.608C38.4706 90.024 36.7266 91 34.6146 91V93.352C34.6146 93.8 34.3266 94.104 33.8626 94.104C33.3986 94.104 33.1106 93.752 33.1106 93.352ZM36.9666 87.608C36.9666 86.2 36.0066 85.72 34.6146 85.72V89.512C36.0386 89.496 36.9666 88.92 36.9666 87.608ZM41.6259 88.216C41.4019 88.216 41.0819 88.216 40.8899 88.2C41.0659 89.112 41.6739 89.544 42.6979 89.544C42.9699 89.544 43.2579 89.528 43.5459 89.528C44.0739 89.528 44.4099 89.736 44.4099 90.216C44.4099 90.744 43.9779 90.92 43.5619 90.984C43.2099 91.032 42.9859 91.032 42.7139 91.032C40.4739 91.032 39.3699 89.8 39.3699 87.624C39.3699 85.32 40.6179 84.168 42.3459 84.168C43.3059 84.168 44.5539 84.648 44.5539 86.2C44.5539 87.944 43.0979 88.216 41.6259 88.216ZM43.1299 86.184C43.1299 85.72 42.7619 85.512 42.2979 85.512C41.4819 85.512 41.0339 85.992 40.8899 86.856C41.0339 86.856 41.2099 86.872 41.7699 86.872C42.8579 86.872 43.1299 86.616 43.1299 86.184ZM49.2884 90.328V87.16C49.2884 85.992 49.1124 85.704 48.2644 85.704C47.9284 85.704 47.5444 85.768 47.2084 85.816V90.328C47.2084 90.792 46.9204 91.064 46.4564 91.064C45.9764 91.064 45.7044 90.792 45.7044 90.328V84.904C45.7044 84.44 45.9764 84.168 46.4404 84.168C46.6804 84.168 46.8724 84.248 47.0164 84.376C47.3204 84.296 47.8324 84.216 48.3604 84.216C49.9764 84.216 50.7764 85.144 50.7764 87.208V90.328C50.7764 90.792 50.5044 91.064 50.0404 91.064C49.5604 91.064 49.2884 90.792 49.2884 90.328ZM57.2611 80.296V90.184C57.2611 90.312 57.2291 90.44 57.1811 90.536C57.0851 90.744 56.9091 90.936 56.5091 90.968C56.2371 90.984 56.0451 91 55.7571 91C53.3731 91 51.9011 89.784 51.9011 87.576C51.9011 85.432 53.6451 84.184 55.7571 84.184V80.296C55.7571 79.832 56.0451 79.544 56.5091 79.544C56.9731 79.544 57.2611 79.832 57.2611 80.296ZM53.4051 87.576C53.4051 88.984 54.3651 89.496 55.7571 89.496V85.672C54.3171 85.688 53.4051 86.328 53.4051 87.576ZM60.6884 88.216C60.4644 88.216 60.1444 88.216 59.9524 88.2C60.1284 89.112 60.7364 89.544 61.7604 89.544C62.0324 89.544 62.3204 89.528 62.6084 89.528C63.1364 89.528 63.4724 89.736 63.4724 90.216C63.4724 90.744 63.0404 90.92 62.6244 90.984C62.2724 91.032 62.0484 91.032 61.7764 91.032C59.5364 91.032 58.4324 89.8 58.4324 87.624C58.4324 85.32 59.6804 84.168 61.4084 84.168C62.3684 84.168 63.6164 84.648 63.6164 86.2C63.6164 87.944 62.1604 88.216 60.6884 88.216ZM62.1924 86.184C62.1924 85.72 61.8244 85.512 61.3604 85.512C60.5444 85.512 60.0964 85.992 59.9524 86.856C60.0964 86.856 60.2724 86.872 60.8324 86.872C61.9204 86.872 62.1924 86.616 62.1924 86.184ZM68.3509 90.328V87.16C68.3509 85.992 68.1749 85.704 67.3269 85.704C66.9909 85.704 66.6069 85.768 66.2709 85.816V90.328C66.2709 90.792 65.9829 91.064 65.5189 91.064C65.0389 91.064 64.7669 90.792 64.7669 90.328V84.904C64.7669 84.44 65.0389 84.168 65.5029 84.168C65.7429 84.168 65.9349 84.248 66.0789 84.376C66.3829 84.296 66.8949 84.216 67.4229 84.216C69.0389 84.216 69.8389 85.144 69.8389 87.208V90.328C69.8389 90.792 69.5669 91.064 69.1029 91.064C68.6229 91.064 68.3509 90.792 68.3509 90.328Z" fill="black"/>
<circle cx="49" cy="12" r="4" fill="black"/>
<path d="M1 91L24 91" stroke="black" stroke-linecap="round"/>
<path d="M74 91L97 91" stroke="black" stroke-linecap="round"/>
</svg>
