<svg width="153" height="140" viewBox="0 0 153 140" fill="none" xmlns="http://www.w3.org/2000/svg">
<rect width="151" height="140" transform="translate(1)" fill="white"/>
<path d="M76.5 27.7156C80.4294 27.7156 84.1495 30.6949 86.929 35.8749C89.6927 41.0254 91.4238 48.1895 91.4238 56.1418C91.4238 64.094 89.6927 71.2582 86.929 76.4086C84.1495 81.5886 80.4294 84.568 76.5 84.568C72.5707 84.568 68.8505 81.5886 66.071 76.4086C63.3073 71.2582 61.5763 64.094 61.5763 56.1418C61.5763 48.1895 63.3073 41.0254 66.071 35.8749C68.8505 30.6949 72.5707 27.7156 76.5 27.7156Z" stroke="black" stroke-width="1.42131"/>
<circle cx="75.7893" cy="56.1417" r="28.4262" stroke="black" stroke-width="1.42131"/>
<circle cx="75.7893" cy="56.1417" r="28.4262" stroke="black" stroke-width="1.42131"/>
<mask id="mask0_116_6224" style="mask-type:alpha" maskUnits="userSpaceOnUse" x="46" y="27" width="59" height="59">
<circle cx="75.7893" cy="56.1417" r="29.1369" fill="#D9D9D9"/>
</mask>
<g mask="url(#mask0_116_6224)">
<path d="M75.7893 71.7762C83.7464 71.7762 90.915 73.4296 96.0682 76.0691C101.259 78.7279 104.216 82.2734 104.216 85.9893C104.216 89.7051 101.259 93.2506 96.0682 95.9094C90.915 98.5489 83.7464 100.202 75.7893 100.202C67.8322 100.202 60.6636 98.5489 55.5104 95.9094C50.3194 93.2506 47.3631 89.7051 47.3631 85.9893C47.3631 82.2734 50.3194 78.7279 55.5104 76.0691C60.6636 73.4296 67.8322 71.7762 75.7893 71.7762Z" stroke="black" stroke-width="1.42131"/>
<path d="M75.7893 13.5024C83.7464 13.5024 90.915 15.1559 96.0682 17.7953C101.259 20.4541 104.216 23.9996 104.216 27.7155C104.216 31.4314 101.259 34.9769 96.0682 37.6357C90.915 40.2751 83.7464 41.9286 75.7893 41.9286C67.8322 41.9286 60.6636 40.2751 55.5104 37.6357C50.3194 34.9769 47.3631 31.4314 47.3631 27.7155C47.3631 23.9996 50.3194 20.4541 55.5104 17.7953C60.6636 15.1559 67.8322 13.5024 75.7893 13.5024Z" stroke="black" stroke-width="1.42131"/>
</g>
<circle cx="42.0727" cy="33.7956" r="2.52677" fill="black"/>
<circle cx="103.189" cy="75.0136" r="2.52677" fill="black"/>
<circle cx="2.52677" cy="2.52677" r="2.52677" transform="matrix(-1 0 0 1 50.9164 72.4868)" fill="black"/>
<circle cx="2.52677" cy="2.52677" r="2.52677" transform="matrix(-1 0 0 1 113.454 31.2688)" fill="black"/>
<circle cx="48.3895" cy="37.5857" r="2.52677" fill="black"/>
<circle cx="109.506" cy="78.8037" r="2.52677" fill="black"/>
<circle cx="2.52677" cy="2.52677" r="2.52677" transform="matrix(-1 0 0 1 44.5996 76.2769)" fill="black"/>
<circle cx="2.52677" cy="2.52677" r="2.52677" transform="matrix(-1 0 0 1 107.137 35.0589)" fill="black"/>
<path d="M45.2311 25.5836L53.2713 33.6237" stroke="black" stroke-linecap="round"/>
<path d="M36.7033 39.2358L46.8864 44.2946" stroke="black" stroke-linecap="round"/>
<path d="M36.7033 74.8848L46.8864 69.826" stroke="black" stroke-linecap="round"/>
<path d="M104.926 43.616L115.109 38.5572" stroke="black" stroke-linecap="round"/>
<path d="M104.926 69.5191L115.109 74.5779" stroke="black" stroke-linecap="round"/>
<path d="M97.8196 78.1721L105.86 86.2122" stroke="black" stroke-linecap="round"/>
<path d="M46.6525 86.7L54.6926 78.6598" stroke="black" stroke-linecap="round"/>
<path d="M99.241 34.1115L107.281 26.0713" stroke="black" stroke-linecap="round"/>
<path d="M29.7727 57.1973C29.7727 58.67 30.9666 59.8639 32.4394 59.8639C33.9122 59.8639 35.1061 58.67 35.1061 57.1973C35.1061 55.7245 33.9122 54.5306 32.4394 54.5306C30.9666 54.5306 29.7727 55.7245 29.7727 57.1973ZM43.8099 57.6973C44.086 57.6973 44.3099 57.4734 44.3099 57.1973C44.3099 56.9211 44.086 56.6973 43.8099 56.6973V57.6973ZM32.4394 57.6973H43.8099V56.6973H32.4394V57.6973Z" fill="black"/>
<path d="M56.6016 56.8524L48.0738 56.8524" stroke="black" stroke-width="1.42131" stroke-linecap="round"/>
<path d="M76.5 36.954L76.5 28.4262" stroke="black" stroke-width="1.42131" stroke-linecap="round"/>
<path d="M76.5 83.8573L76.5 75.3294" stroke="black" stroke-width="1.42131" stroke-linecap="round"/>
<path d="M103.505 56.8524L94.977 56.8524" stroke="black" stroke-width="1.42131" stroke-linecap="round"/>
<path d="M122.496 57.1973C122.496 58.67 121.302 59.8639 119.829 59.8639C118.356 59.8639 117.162 58.67 117.162 57.1973C117.162 55.7245 118.356 54.5306 119.829 54.5306C121.302 54.5306 122.496 55.7245 122.496 57.1973ZM108.459 57.6973C108.182 57.6973 107.959 57.4734 107.959 57.1973C107.959 56.9211 108.182 56.6973 108.459 56.6973V57.6973ZM119.829 57.6973H108.459V56.6973H119.829V57.6973Z" fill="black"/>
<path d="M72.5261 66.8016H75.5621V55.0371L72.9056 52.0011L70.2491 53.5191L67.9721 65.6631L70.2491 66.4221L72.1466 56.1756L72.5261 66.8016Z" fill="black"/>
<path d="M80.1161 66.8016H77.0801V55.0371L79.7366 52.0011L82.3931 53.5191L84.6701 65.6631L82.3931 66.4221L80.4956 56.1756L80.1161 66.8016Z" fill="black"/>
<path d="M73.6646 51.2421L76.3211 54.2781L78.5981 51.2421L76.3211 50.1036L73.6646 51.2421Z" fill="black"/>
<path d="M72.5261 66.8016L72.1469 66.8151C72.1541 67.0193 72.3218 67.1811 72.5261 67.1811V66.8016ZM75.5621 66.8016V67.1811C75.7717 67.1811 75.9416 67.0112 75.9416 66.8016H75.5621ZM75.5621 55.0371H75.9416C75.9416 54.9452 75.9082 54.8564 75.8477 54.7872L75.5621 55.0371ZM72.9056 52.0011L73.1912 51.7512C73.0723 51.6153 72.8741 51.582 72.7173 51.6716L72.9056 52.0011ZM70.2491 53.5191L70.0608 53.1896C69.9642 53.2448 69.8966 53.3397 69.8761 53.4492L70.2491 53.5191ZM67.9721 65.6631L67.5991 65.5932C67.5642 65.7796 67.6722 65.9632 67.8521 66.0231L67.9721 65.6631ZM70.2491 66.4221L70.1291 66.7821C70.2333 66.8169 70.3474 66.8048 70.4419 66.749C70.5365 66.6932 70.6023 66.5992 70.6223 66.4912L70.2491 66.4221ZM72.1466 56.1756L72.5259 56.1621C72.519 55.9686 72.3676 55.8114 72.1746 55.7971C71.9815 55.7829 71.8087 55.9162 71.7735 56.1065L72.1466 56.1756ZM80.1161 66.8016V67.1811C80.3204 67.1811 80.4881 67.0193 80.4954 66.8151L80.1161 66.8016ZM77.0801 66.8016H76.7006C76.7006 67.0112 76.8705 67.1811 77.0801 67.1811V66.8016ZM77.0801 55.0371L76.7945 54.7872C76.734 54.8564 76.7006 54.9452 76.7006 55.0371H77.0801ZM79.7366 52.0011L79.9249 51.6716C79.7681 51.582 79.5699 51.6153 79.451 51.7512L79.7366 52.0011ZM82.3931 53.5191L82.7661 53.4492C82.7456 53.3397 82.6781 53.2448 82.5814 53.1896L82.3931 53.5191ZM84.6701 65.6631L84.7901 66.0231C84.97 65.9632 85.0781 65.7796 85.0431 65.5932L84.6701 65.6631ZM82.3931 66.4221L82.02 66.4912C82.04 66.5992 82.1057 66.6932 82.2003 66.749C82.2949 66.8048 82.409 66.8169 82.5131 66.7821L82.3931 66.4221ZM80.4956 56.1756L80.8688 56.1065C80.8335 55.9162 80.6607 55.7829 80.4677 55.7971C80.2746 55.8114 80.1233 55.9686 80.1164 56.1621L80.4956 56.1756ZM73.6646 51.2421L73.5151 50.8933C73.4035 50.9411 73.3215 51.0395 73.2946 51.158C73.2676 51.2764 73.299 51.4006 73.379 51.492L73.6646 51.2421ZM76.3211 54.2781L76.0355 54.528C76.1109 54.6141 76.2211 54.6616 76.3354 54.6573C76.4498 54.653 76.5561 54.5973 76.6247 54.5058L76.3211 54.2781ZM78.5981 51.2421L78.9017 51.4698C78.9692 51.3798 78.9933 51.2644 78.9675 51.1549C78.9416 51.0454 78.8685 50.953 78.7678 50.9027L78.5981 51.2421ZM76.3211 50.1036L76.4908 49.7642C76.4664 49.752 76.4408 49.7424 76.4144 49.7357L76.3211 50.1036ZM75.1826 49.3446L74.8516 49.5303L75.1826 49.3446ZM77.8391 48.2061C77.8391 48.4157 78.009 48.5856 78.2186 48.5856C78.4282 48.5856 78.5981 48.4157 78.5981 48.2061H77.8391ZM75.1826 47.4471L75.4171 47.7455L75.4349 47.7315L75.4509 47.7154L75.1826 47.4471ZM72.5261 67.1811H75.5621V66.4221H72.5261V67.1811ZM75.9416 66.8016V55.0371H75.1826V66.8016H75.9416ZM75.8477 54.7872L73.1912 51.7512L72.62 52.251L75.2765 55.287L75.8477 54.7872ZM72.7173 51.6716L70.0608 53.1896L70.4374 53.8486L73.0939 52.3306L72.7173 51.6716ZM69.8761 53.4492L67.5991 65.5932L68.3451 65.733L70.6221 53.589L69.8761 53.4492ZM67.8521 66.0231L70.1291 66.7821L70.3691 66.0621L68.0921 65.3031L67.8521 66.0231ZM70.6223 66.4912L72.5198 56.2447L71.7735 56.1065L69.876 66.353L70.6223 66.4912ZM71.7674 56.1891L72.1469 66.8151L72.9054 66.7881L72.5259 56.1621L71.7674 56.1891ZM80.1161 66.4221H77.0801V67.1811H80.1161V66.4221ZM77.4596 66.8016V55.0371H76.7006V66.8016H77.4596ZM77.3657 55.287L80.0222 52.251L79.451 51.7512L76.7945 54.7872L77.3657 55.287ZM79.5483 52.3306L82.2048 53.8486L82.5814 53.1896L79.9249 51.6716L79.5483 52.3306ZM82.0201 53.589L84.2971 65.733L85.0431 65.5932L82.7661 53.4492L82.0201 53.589ZM84.5501 65.3031L82.2731 66.0621L82.5131 66.7821L84.7901 66.0231L84.5501 65.3031ZM82.7663 66.353L80.8688 56.1065L80.1225 56.2447L82.02 66.4912L82.7663 66.353ZM80.1164 56.1621L79.7369 66.7881L80.4954 66.8151L80.8749 56.1891L80.1164 56.1621ZM73.379 51.492L76.0355 54.528L76.6067 54.0282L73.9502 50.9922L73.379 51.492ZM76.6247 54.5058L78.9017 51.4698L78.2945 51.0144L76.0175 54.0504L76.6247 54.5058ZM78.7678 50.9027L76.4908 49.7642L76.1514 50.443L78.4284 51.5815L78.7678 50.9027ZM76.1716 49.7548L73.5151 50.8933L73.8141 51.5909L76.4706 50.4524L76.1716 49.7548ZM76.3211 50.1036C76.4144 49.7357 76.4144 49.7358 76.4145 49.7358C76.4146 49.7358 76.4146 49.7358 76.4147 49.7358C76.4148 49.7358 76.4149 49.7359 76.415 49.7359C76.4151 49.7359 76.4152 49.736 76.4153 49.736C76.4154 49.736 76.4153 49.736 76.4151 49.7359C76.4146 49.7358 76.4133 49.7354 76.4113 49.7349C76.4074 49.7338 76.4007 49.732 76.3915 49.7293C76.373 49.7239 76.3448 49.7152 76.3094 49.7031C76.2381 49.6787 76.1401 49.6411 76.0348 49.5893C75.8122 49.4797 75.611 49.3327 75.5136 49.159L74.8516 49.5303C75.0618 49.905 75.4299 50.1375 75.6996 50.2702C75.8405 50.3396 75.9695 50.389 76.0636 50.4212C76.1109 50.4374 76.15 50.4494 76.1782 50.4577C76.1923 50.4618 76.2037 50.465 76.2121 50.4673C76.2163 50.4684 76.2197 50.4693 76.2224 50.47C76.2237 50.4704 76.2248 50.4707 76.2257 50.4709C76.2262 50.471 76.2266 50.4711 76.227 50.4712C76.2271 50.4713 76.2273 50.4713 76.2275 50.4714C76.2275 50.4714 76.2276 50.4714 76.2277 50.4714C76.2278 50.4714 76.2279 50.4715 76.3211 50.1036ZM75.5136 49.159C75.3112 48.7981 75.1937 48.5043 75.1758 48.2693C75.1606 48.0685 75.2151 47.9042 75.4171 47.7455L74.9482 47.1487C74.5388 47.4703 74.3854 47.8842 74.419 48.3268C74.4501 48.7351 74.6383 49.15 74.8516 49.5303L75.5136 49.159ZM75.4509 47.7154C75.4506 47.7158 75.4534 47.7129 75.4609 47.707C75.4682 47.7012 75.4783 47.6937 75.4917 47.6847C75.5188 47.6664 75.5549 47.6446 75.6003 47.6205C75.6912 47.5721 75.8092 47.5194 75.9459 47.4701C76.2215 47.3707 76.5491 47.2936 76.8551 47.2838C77.1665 47.2738 77.4079 47.3345 77.5646 47.4564C77.705 47.5656 77.8391 47.772 77.8391 48.2061H78.5981C78.5981 47.6004 78.4002 47.1447 78.0306 46.8573C77.6774 46.5826 77.231 46.5124 76.8308 46.5252C76.4252 46.5381 76.0175 46.6374 75.6883 46.7562C75.5225 46.816 75.3708 46.8828 75.2437 46.9504C75.1239 47.0142 75.0016 47.0914 74.9143 47.1787L75.4509 47.7154Z" fill="black"/>
<path d="M44.9143 108.145L37.8931 101.493V107.32C37.8931 108.031 37.3814 108.656 36.557 108.656C35.7327 108.656 35.1926 108.116 35.1926 107.32V92.0269C35.1926 91.2026 35.7327 90.6909 36.557 90.6909C37.3814 90.6909 37.8931 91.2026 37.8931 92.0269V98.3091L44.2605 91.3163C44.6016 90.8899 45.1133 90.7193 45.5113 90.7193C46.2219 90.7193 46.8189 91.3163 46.8189 92.0269C46.8189 92.3112 46.7336 92.7091 46.4209 93.0218L40.0534 99.9294L46.9894 106.268C47.3021 106.553 47.3874 107.008 47.3874 107.32C47.3874 108.031 46.8473 108.656 46.0798 108.656C45.7103 108.656 45.227 108.486 44.9143 108.145ZM51.3282 89.497V107.349C51.3282 108.173 50.8165 108.656 49.9922 108.656C49.1394 108.656 48.6561 108.173 48.6561 107.349V89.497C48.6561 88.6726 49.1394 88.1894 49.9638 88.1894C50.8165 88.1894 51.3282 88.6726 51.3282 89.497ZM57.3999 103.596C57.0019 103.596 56.4334 103.596 56.0923 103.568C56.405 105.188 57.4851 105.956 59.3044 105.956C59.7877 105.956 60.2993 105.927 60.811 105.927C61.7491 105.927 62.346 106.297 62.346 107.15C62.346 108.088 61.5785 108.4 60.8394 108.514C60.2141 108.599 59.8161 108.599 59.3329 108.599C55.3532 108.599 53.3918 106.411 53.3918 102.545C53.3918 98.4512 55.609 96.4046 58.679 96.4046C60.3846 96.4046 62.6019 97.2573 62.6019 100.015C62.6019 103.113 60.0151 103.596 57.3999 103.596ZM60.0719 99.9863C60.0719 99.1619 59.4181 98.7924 58.5938 98.7924C57.144 98.7924 56.3481 99.6451 56.0923 101.18C56.3481 101.18 56.6608 101.209 57.6557 101.209C59.5887 101.209 60.0719 100.754 60.0719 99.9863ZM67.3179 97.7122V107.349C67.3179 108.173 66.8063 108.656 65.9819 108.656C65.1291 108.656 64.6459 108.173 64.6459 107.349V97.7122C64.6459 96.8878 65.1291 96.4046 65.9535 96.4046C66.8063 96.4046 67.3179 96.8878 67.3179 97.7122ZM64.3048 92.9934V92.7376C64.3048 91.7711 65.0439 91.0604 65.9819 91.0604C66.92 91.0604 67.6591 91.7711 67.6591 92.7376V92.9934C67.6591 93.9883 66.92 94.6706 65.9819 94.6706C65.0439 94.6706 64.3048 93.9883 64.3048 92.9934ZM78.9043 89.5254V107.093C78.9043 107.32 78.8474 107.548 78.7622 107.718C78.5916 108.088 78.2789 108.429 77.5683 108.486C77.085 108.514 76.7439 108.543 76.2322 108.543C71.9967 108.543 69.3815 106.382 69.3815 102.459C69.3815 98.6502 72.48 96.433 76.2322 96.433V89.5254C76.2322 88.7011 76.7439 88.1894 77.5683 88.1894C78.3926 88.1894 78.9043 88.7011 78.9043 89.5254ZM72.0536 102.459C72.0536 104.961 73.7591 105.87 76.2322 105.87V99.0766C73.6739 99.105 72.0536 100.242 72.0536 102.459ZM87.4379 103.341V97.7122C87.4379 96.8878 87.9212 96.4046 88.774 96.4046C89.5983 96.4046 90.0816 96.8878 90.0816 97.7122V103.255C90.0816 107.15 88.5466 108.656 85.6755 108.656C82.8045 108.656 81.3831 107.064 81.3831 103.255V97.7122C81.3831 96.8878 81.8664 96.4046 82.6908 96.4046C83.5435 96.4046 84.0268 96.8878 84.0268 97.7122V103.341C84.0268 105.359 84.3679 106.126 85.7039 106.126C87.04 106.126 87.4379 105.33 87.4379 103.341ZM98.9121 107.349V101.72C98.9121 99.6451 98.5994 99.1335 97.0928 99.1335C96.4959 99.1335 95.8137 99.2472 95.2167 99.3325V107.349C95.2167 108.173 94.705 108.656 93.8807 108.656C93.0279 108.656 92.5447 108.173 92.5447 107.349V97.7122C92.5447 96.8878 93.0279 96.4046 93.8523 96.4046C94.2787 96.4046 94.6198 96.5467 94.8756 96.7741C95.4157 96.632 96.3253 96.4898 97.2634 96.4898C100.134 96.4898 101.556 98.1385 101.556 101.806V107.349C101.556 108.173 101.073 108.656 100.248 108.656C99.3954 108.656 98.9121 108.173 98.9121 107.349ZM105.714 114C104.975 113.915 104.208 113.574 104.208 112.636C104.208 111.783 104.805 111.385 105.743 111.385C106.34 111.385 106.965 111.442 107.448 111.442C110.064 111.442 110.405 110.731 110.405 109.338V108.543C106.652 108.543 103.554 106.809 103.554 102.516C103.554 98.5934 106.624 96.433 110.405 96.433C110.916 96.433 111.314 96.433 111.798 96.4898C112.849 96.632 113.048 97.3426 113.077 97.7406V97.8543V97.968V109.253C113.077 112.38 111.655 114.057 107.221 114.057C106.738 114.057 106.198 114.057 105.714 114ZM106.226 102.516C106.226 104.847 107.846 105.87 110.405 105.899V99.105C107.932 99.105 106.226 100.015 106.226 102.516ZM115.3 106.979V106.723C115.3 105.757 116.039 105.046 116.977 105.046C117.915 105.046 118.654 105.757 118.654 106.723V106.979C118.654 107.974 117.915 108.656 116.977 108.656C116.039 108.656 115.3 107.974 115.3 106.979ZM46.775 127.474C46.2292 127.338 45.8653 126.951 45.8653 126.428C45.8653 125.791 46.2974 125.359 46.9796 125.359C47.298 125.359 47.7528 125.428 48.9808 125.428C50.0497 125.428 51.0957 124.859 51.0957 123.722C51.0957 122.562 50.5272 122.176 49.0263 121.425C46.9341 120.379 45.979 119.219 45.979 117.241C45.979 114.739 47.912 113.284 51.0275 113.284C51.4369 113.284 51.8234 113.307 52.0963 113.352C52.6649 113.443 53.0287 113.852 53.0287 114.421C53.0287 115.035 52.6194 115.535 52.0054 115.535C51.687 115.535 51.0048 115.467 50.368 115.467C48.8671 115.467 48.2076 116.309 48.2076 117.241C48.2076 118.378 48.7534 118.742 50.5272 119.742C52.1646 120.652 53.3471 121.63 53.3471 123.699C53.3471 126.155 51.5051 127.611 48.5715 127.611C47.7983 127.611 47.207 127.588 46.775 127.474ZM54.8739 130.885V119.037C54.8739 118.81 54.9194 118.605 55.0331 118.446C55.1696 118.219 55.4197 118.014 55.8973 117.946C56.2839 117.9 56.6022 117.9 57.0116 117.9C60.0361 117.9 62.4922 119.583 62.4922 122.721C62.4922 126.155 60.0134 127.543 57.0116 127.543V130.885C57.0116 131.522 56.6022 131.954 55.9428 131.954C55.2833 131.954 54.8739 131.454 54.8739 130.885ZM60.3545 122.721C60.3545 120.72 58.99 120.038 57.0116 120.038V125.428C59.0355 125.405 60.3545 124.586 60.3545 122.721ZM66.9767 123.586C66.6584 123.586 66.2036 123.586 65.9307 123.563C66.1808 124.859 67.045 125.473 68.5004 125.473C68.887 125.473 69.2963 125.45 69.7057 125.45C70.4561 125.45 70.9337 125.746 70.9337 126.428C70.9337 127.179 70.3197 127.429 69.7284 127.52C69.2281 127.588 68.9097 127.588 68.5231 127.588C65.3394 127.588 63.7703 125.837 63.7703 122.744C63.7703 119.469 65.5441 117.832 68.0001 117.832C69.3645 117.832 71.1383 118.514 71.1383 120.72C71.1383 123.199 69.0689 123.586 66.9767 123.586ZM69.1144 120.698C69.1144 120.038 68.5914 119.742 67.9319 119.742C66.7721 119.742 66.1353 120.425 65.9307 121.653C66.1353 121.653 66.3855 121.675 67.1814 121.675C68.7278 121.675 69.1144 121.312 69.1144 120.698ZM77.8675 126.587V122.085C77.8675 120.425 77.6174 120.015 76.4121 120.015C75.9346 120.015 75.3888 120.106 74.9112 120.174V126.587C74.9112 127.247 74.5019 127.634 73.8424 127.634C73.1602 127.634 72.7736 127.247 72.7736 126.587V118.878C72.7736 118.219 73.1602 117.832 73.8196 117.832C74.1608 117.832 74.4337 117.946 74.6383 118.128C75.0704 118.014 75.7981 117.9 76.5486 117.9C78.8454 117.9 79.9824 119.219 79.9824 122.153V126.587C79.9824 127.247 79.5959 127.634 78.9364 127.634C78.2541 127.634 77.8675 127.247 77.8675 126.587ZM89.1993 112.329V126.383C89.1993 126.565 89.1538 126.747 89.0856 126.883C88.9491 127.179 88.699 127.452 88.1305 127.497C87.7439 127.52 87.471 127.543 87.0616 127.543C83.6732 127.543 81.5811 125.814 81.5811 122.676C81.5811 119.629 84.0598 117.855 87.0616 117.855V112.329C87.0616 111.669 87.471 111.26 88.1305 111.26C88.7899 111.26 89.1993 111.669 89.1993 112.329ZM83.7187 122.676C83.7187 124.677 85.0832 125.405 87.0616 125.405V119.97C85.0149 119.993 83.7187 120.902 83.7187 122.676ZM94.0705 123.586C93.7521 123.586 93.2973 123.586 93.0244 123.563C93.2745 124.859 94.1387 125.473 95.5941 125.473C95.9807 125.473 96.3901 125.45 96.7994 125.45C97.5498 125.45 98.0274 125.746 98.0274 126.428C98.0274 127.179 97.4134 127.429 96.8221 127.52C96.3218 127.588 96.0035 127.588 95.6169 127.588C92.4331 127.588 90.864 125.837 90.864 122.744C90.864 119.469 92.6378 117.832 95.0938 117.832C96.4583 117.832 98.2321 118.514 98.2321 120.72C98.2321 123.199 96.1626 123.586 94.0705 123.586ZM96.2081 120.698C96.2081 120.038 95.6851 119.742 95.0256 119.742C93.8658 119.742 93.2291 120.425 93.0244 121.653C93.2291 121.653 93.4792 121.675 94.2751 121.675C95.8215 121.675 96.2081 121.312 96.2081 120.698ZM104.961 126.587V122.085C104.961 120.425 104.711 120.015 103.506 120.015C103.028 120.015 102.482 120.106 102.005 120.174V126.587C102.005 127.247 101.596 127.634 100.936 127.634C100.254 127.634 99.8673 127.247 99.8673 126.587V118.878C99.8673 118.219 100.254 117.832 100.913 117.832C101.254 117.832 101.527 117.946 101.732 118.128C102.164 118.014 102.892 117.9 103.642 117.9C105.939 117.9 107.076 119.219 107.076 122.153V126.587C107.076 127.247 106.69 127.634 106.03 127.634C105.348 127.634 104.961 127.247 104.961 126.587Z" fill="black"/>
<circle cx="76.5" cy="17.0557" r="5.68524" fill="black"/>
<path d="M1 129.339L33.6901 129.339" stroke="black" stroke-width="1.42131" stroke-linecap="round"/>
<path d="M119.31 129.339L152 129.339" stroke="black" stroke-width="1.42131" stroke-linecap="round"/>
</svg>
