<svg width="42" height="40" viewBox="0 0 42 40" fill="none" xmlns="http://www.w3.org/2000/svg">
<rect width="40" height="40" transform="translate(1)" fill="white"/>
<path d="M21 8.125C22.1519 8.125 23.2425 8.99842 24.0573 10.517C24.8675 12.0269 25.375 14.1271 25.375 16.4583C25.375 18.7896 24.8675 20.8898 24.0573 22.3997C23.2425 23.9182 22.1519 24.7917 21 24.7917C19.848 24.7917 18.7575 23.9182 17.9426 22.3997C17.1324 20.8898 16.625 18.7896 16.625 16.4583C16.625 14.1271 17.1324 12.0269 17.9426 10.517C18.7575 8.99842 19.848 8.125 21 8.125Z" stroke="black" stroke-width="0.416667"/>
<circle cx="20.7917" cy="16.4584" r="8.33333" stroke="black" stroke-width="0.416667"/>
<circle cx="20.7917" cy="16.4584" r="8.33333" stroke="black" stroke-width="0.416667"/>
<mask id="mask0_116_6130" style="mask-type:alpha" maskUnits="userSpaceOnUse" x="12" y="7" width="18" height="18">
<circle cx="20.7917" cy="16.4584" r="8.54167" fill="#D9D9D9"/>
</mask>
<g mask="url(#mask0_116_6130)">
<path d="M20.7917 21.0417C23.1243 21.0417 25.2259 21.5264 26.7366 22.3002C28.2583 23.0796 29.125 24.119 29.125 25.2083C29.125 26.2977 28.2583 27.3371 26.7366 28.1165C25.2259 28.8903 23.1243 29.375 20.7917 29.375C18.459 29.375 16.3575 28.8903 14.8468 28.1165C13.325 27.3371 12.4583 26.2977 12.4583 25.2083C12.4583 24.119 13.325 23.0796 14.8468 22.3002C16.3575 21.5264 18.459 21.0417 20.7917 21.0417Z" stroke="black" stroke-width="0.416667"/>
<path d="M20.7917 3.95836C23.1243 3.95836 25.2259 4.44309 26.7366 5.21686C28.2583 5.99631 29.125 7.0357 29.125 8.12503C29.125 9.21437 28.2583 10.2538 26.7366 11.0332C25.2259 11.807 23.1243 12.2917 20.7917 12.2917C18.459 12.2917 16.3575 11.807 14.8468 11.0332C13.325 10.2538 12.4583 9.21437 12.4583 8.12503C12.4583 7.0357 13.325 5.99631 14.8468 5.21686C16.3575 4.44309 18.459 3.95836 20.7917 3.95836Z" stroke="black" stroke-width="0.416667"/>
</g>
<circle cx="10.9074" cy="9.9074" r="0.740741" fill="black"/>
<circle cx="28.8241" cy="21.9907" r="0.740741" fill="black"/>
<circle cx="0.740741" cy="0.740741" r="0.740741" transform="matrix(-1 0 0 1 13.5 21.25)" fill="black"/>
<circle cx="0.740741" cy="0.740741" r="0.740741" transform="matrix(-1 0 0 1 31.8333 9.16666)" fill="black"/>
<circle cx="12.7592" cy="11.0185" r="0.740741" fill="black"/>
<circle cx="30.6759" cy="23.1018" r="0.740741" fill="black"/>
<circle cx="0.740741" cy="0.740741" r="0.740741" transform="matrix(-1 0 0 1 11.6482 22.3611)" fill="black"/>
<circle cx="0.740741" cy="0.740741" r="0.740741" transform="matrix(-1 0 0 1 29.9815 10.2778)" fill="black"/>
<path d="M11.8333 7.5L14.1903 9.85702" stroke="black" stroke-linecap="round"/>
<path d="M9.33331 11.5022L12.3186 12.9853" stroke="black" stroke-linecap="round"/>
<path d="M9.33331 21.953L12.3186 20.47" stroke="black" stroke-linecap="round"/>
<path d="M29.3333 12.7863L32.3186 11.3033" stroke="black" stroke-linecap="round"/>
<path d="M29.3333 20.38L32.3186 21.863" stroke="black" stroke-linecap="round"/>
<path d="M27.25 22.9167L29.607 25.2737" stroke="black" stroke-linecap="round"/>
<path d="M12.25 25.4167L14.607 23.0596" stroke="black" stroke-linecap="round"/>
<path d="M27.6666 10L30.0236 7.64298" stroke="black" stroke-linecap="round"/>
<path d="M5.41665 16.7678C5.41665 18.2405 6.61055 19.4344 8.08331 19.4344C9.55607 19.4344 10.75 18.2405 10.75 16.7678C10.75 15.295 9.55607 14.1011 8.08331 14.1011C6.61055 14.1011 5.41665 15.295 5.41665 16.7678ZM11.4166 17.2678C11.6928 17.2678 11.9166 17.0439 11.9166 16.7678C11.9166 16.4916 11.6928 16.2678 11.4166 16.2678V17.2678ZM8.08331 17.2678H11.4166V16.2678H8.08331V17.2678Z" fill="black"/>
<path d="M15.1666 16.6667L12.6666 16.6667" stroke="black" stroke-width="0.416667" stroke-linecap="round"/>
<path d="M21 10.8333L21 8.33334" stroke="black" stroke-width="0.416667" stroke-linecap="round"/>
<path d="M21 24.5833L21 22.0833" stroke="black" stroke-width="0.416667" stroke-linecap="round"/>
<path d="M28.9166 16.6667L26.4166 16.6667" stroke="black" stroke-width="0.416667" stroke-linecap="round"/>
<path d="M36.3689 16.7678C36.3689 18.2405 35.175 19.4344 33.7022 19.4344C32.2295 19.4344 31.0355 18.2405 31.0355 16.7678C31.0355 15.295 32.2295 14.1011 33.7022 14.1011C35.175 14.1011 36.3689 15.295 36.3689 16.7678ZM30.3689 17.2678C30.0927 17.2678 29.8689 17.0439 29.8689 16.7678C29.8689 16.4916 30.0927 16.2678 30.3689 16.2678V17.2678ZM33.7022 17.2678H30.3689V16.2678H33.7022V17.2678Z" fill="black"/>
<path d="M19.835 19.5833H20.7251V16.1345L19.9463 15.2445L19.1675 15.6895L18.5 19.2496L19.1675 19.4721L19.7238 16.4682L19.835 19.5833Z" fill="black"/>
<path d="M22.0601 19.5833H21.1701V16.1345L21.9488 15.2445L22.7276 15.6895L23.3951 19.2496L22.7276 19.4721L22.1714 16.4682L22.0601 19.5833Z" fill="black"/>
<path d="M20.1688 15.022L20.9476 15.912L21.6151 15.022L20.9476 14.6882L20.1688 15.022Z" fill="black"/>
<path d="M19.835 19.5833L19.7239 19.5873C19.726 19.6472 19.7751 19.6946 19.835 19.6946V19.5833ZM20.7251 19.5833V19.6946C20.7865 19.6946 20.8363 19.6448 20.8363 19.5833H20.7251ZM20.7251 16.1345H20.8363C20.8363 16.1075 20.8265 16.0815 20.8088 16.0612L20.7251 16.1345ZM19.9463 15.2445L20.03 15.1712C19.9952 15.1314 19.9371 15.1216 19.8911 15.1479L19.9463 15.2445ZM19.1675 15.6895L19.1123 15.5929C19.084 15.6091 19.0642 15.6369 19.0582 15.669L19.1675 15.6895ZM18.5 19.2496L18.3907 19.2291C18.3804 19.2837 18.4121 19.3375 18.4648 19.3551L18.5 19.2496ZM19.1675 19.4721L19.1323 19.5776C19.1629 19.5878 19.1963 19.5843 19.224 19.5679C19.2518 19.5515 19.2711 19.524 19.2769 19.4923L19.1675 19.4721ZM19.7238 16.4682L19.835 16.4643C19.8329 16.4076 19.7886 16.3615 19.732 16.3573C19.6754 16.3531 19.6247 16.3922 19.6144 16.448L19.7238 16.4682ZM22.0601 19.5833V19.6946C22.12 19.6946 22.1691 19.6472 22.1713 19.5873L22.0601 19.5833ZM21.1701 19.5833H21.0588C21.0588 19.6448 21.1086 19.6946 21.1701 19.6946V19.5833ZM21.1701 16.1345L21.0863 16.0612C21.0686 16.0815 21.0588 16.1075 21.0588 16.1345H21.1701ZM21.9488 15.2445L22.004 15.1479C21.9581 15.1216 21.9 15.1314 21.8651 15.1712L21.9488 15.2445ZM22.7276 15.6895L22.837 15.669C22.8309 15.6369 22.8112 15.6091 22.7828 15.5929L22.7276 15.6895ZM23.3951 19.2496L23.4303 19.3551C23.4831 19.3375 23.5147 19.2837 23.5045 19.2291L23.3951 19.2496ZM22.7276 19.4721L22.6182 19.4923C22.6241 19.524 22.6434 19.5515 22.6711 19.5679C22.6988 19.5843 22.7323 19.5878 22.7628 19.5776L22.7276 19.4721ZM22.1714 16.4682L22.2807 16.448C22.2704 16.3922 22.2197 16.3531 22.1632 16.3573C22.1066 16.3615 22.0622 16.4076 22.0602 16.4643L22.1714 16.4682ZM20.1688 15.022L20.125 14.9197C20.0922 14.9337 20.0682 14.9626 20.0603 14.9973C20.0524 15.032 20.0616 15.0684 20.0851 15.0952L20.1688 15.022ZM20.9476 15.912L20.8638 15.9852C20.8859 16.0105 20.9182 16.0244 20.9518 16.0232C20.9853 16.0219 21.0164 16.0056 21.0366 15.9787L20.9476 15.912ZM21.6151 15.022L21.7041 15.0887C21.7239 15.0623 21.7309 15.0285 21.7234 14.9964C21.7158 14.9643 21.6943 14.9372 21.6648 14.9225L21.6151 15.022ZM20.9476 14.6882L20.9973 14.5887C20.9902 14.5851 20.9827 14.5823 20.9749 14.5804L20.9476 14.6882ZM20.6138 14.4657L20.5168 14.5201L20.6138 14.4657ZM21.3926 14.1319C21.3926 14.1934 21.4424 14.2432 21.5038 14.2432C21.5653 14.2432 21.6151 14.1934 21.6151 14.1319H21.3926ZM20.6138 13.9094L20.683 13.9975L20.6925 13.9881L20.6138 13.9094ZM19.835 19.6946H20.7251V19.4721H19.835V19.6946ZM20.8363 19.5833V16.1345H20.6138V19.5833H20.8363ZM20.8088 16.0612L20.03 15.1712L19.8626 15.3177L20.6413 16.2078L20.8088 16.0612ZM19.8911 15.1479L19.1123 15.5929L19.2227 15.7861L20.0015 15.3411L19.8911 15.1479ZM19.0582 15.669L18.3907 19.2291L18.6093 19.2701L19.2769 15.71L19.0582 15.669ZM18.4648 19.3551L19.1323 19.5776L19.2027 19.3665L18.5352 19.144L18.4648 19.3551ZM19.2769 19.4923L19.8332 16.4885L19.6144 16.448L19.0581 19.4518L19.2769 19.4923ZM19.6126 16.4722L19.7239 19.5873L19.9462 19.5794L19.835 16.4643L19.6126 16.4722ZM22.0601 19.4721H21.1701V19.6946H22.0601V19.4721ZM21.2813 19.5833V16.1345H21.0588V19.5833H21.2813ZM21.2538 16.2078L22.0326 15.3177L21.8651 15.1712L21.0863 16.0612L21.2538 16.2078ZM21.8936 15.3411L22.6724 15.7861L22.7828 15.5929L22.004 15.1479L21.8936 15.3411ZM22.6183 15.71L23.2858 19.2701L23.5045 19.2291L22.837 15.669L22.6183 15.71ZM23.36 19.144L22.6924 19.3665L22.7628 19.5776L23.4303 19.3551L23.36 19.144ZM22.837 19.4518L22.2807 16.448L22.062 16.4885L22.6182 19.4923L22.837 19.4518ZM22.0602 16.4643L21.9489 19.5794L22.1713 19.5873L22.2825 16.4722L22.0602 16.4643ZM20.0851 15.0952L20.8638 15.9852L21.0313 15.8387L20.2525 14.9487L20.0851 15.0952ZM21.0366 15.9787L21.7041 15.0887L21.5261 14.9552L20.8586 15.8452L21.0366 15.9787ZM21.6648 14.9225L20.9973 14.5887L20.8978 14.7877L21.5653 15.1215L21.6648 14.9225ZM20.9037 14.5859L20.125 14.9197L20.2126 15.1242L20.9914 14.7905L20.9037 14.5859ZM20.9476 14.6882C20.9749 14.5804 20.9749 14.5804 20.975 14.5804C20.975 14.5804 20.975 14.5804 20.975 14.5804C20.975 14.5804 20.9751 14.5804 20.9751 14.5804C20.9751 14.5804 20.9752 14.5804 20.9752 14.5804C20.9752 14.5804 20.9752 14.5804 20.9751 14.5804C20.975 14.5804 20.9746 14.5803 20.974 14.5801C20.9729 14.5798 20.9709 14.5793 20.9682 14.5785C20.9628 14.5769 20.9545 14.5743 20.9441 14.5708C20.9232 14.5636 20.8945 14.5526 20.8636 14.5374C20.7984 14.5053 20.7394 14.4622 20.7108 14.4113L20.5168 14.5201C20.5784 14.63 20.6863 14.6981 20.7654 14.7371C20.8067 14.7574 20.8445 14.7719 20.8721 14.7813C20.8859 14.786 20.8974 14.7896 20.9057 14.792C20.9098 14.7932 20.9131 14.7941 20.9156 14.7948C20.9168 14.7952 20.9178 14.7954 20.9186 14.7956C20.919 14.7957 20.9193 14.7958 20.9196 14.7959C20.9197 14.7959 20.9199 14.7959 20.92 14.796C20.92 14.796 20.9201 14.796 20.9201 14.796C20.9201 14.796 20.9202 14.796 20.9202 14.796C20.9202 14.796 20.9202 14.796 20.9476 14.6882ZM20.7108 14.4113C20.6515 14.3055 20.6171 14.2194 20.6118 14.1505C20.6073 14.0916 20.6233 14.0434 20.6825 13.9969L20.5451 13.8219C20.4251 13.9162 20.3801 14.0376 20.39 14.1673C20.3991 14.287 20.4542 14.4086 20.5168 14.5201L20.7108 14.4113ZM20.6925 13.9881C20.6924 13.9882 20.6932 13.9874 20.6954 13.9856C20.6975 13.9839 20.7005 13.9817 20.7044 13.9791C20.7124 13.9737 20.723 13.9673 20.7363 13.9603C20.7629 13.9461 20.7975 13.9306 20.8376 13.9162C20.9184 13.887 21.0144 13.8644 21.1041 13.8616C21.1954 13.8586 21.2662 13.8764 21.3121 13.9122C21.3533 13.9442 21.3926 14.0047 21.3926 14.1319H21.6151C21.6151 13.9544 21.5571 13.8208 21.4487 13.7365C21.3452 13.656 21.2143 13.6354 21.097 13.6392C20.9781 13.643 20.8586 13.6721 20.7621 13.7069C20.7135 13.7244 20.669 13.744 20.6317 13.7638C20.5966 13.7825 20.5607 13.8052 20.5351 13.8308L20.6925 13.9881Z" fill="black"/>
<path d="M11.7513 32.1333L9.69301 30.1833V31.8917C9.69301 32.1 9.54301 32.2833 9.30135 32.2833C9.05968 32.2833 8.90135 32.125 8.90135 31.8917V27.4083C8.90135 27.1667 9.05968 27.0167 9.30135 27.0167C9.54301 27.0167 9.69301 27.1667 9.69301 27.4083V29.25L11.5597 27.2C11.6597 27.075 11.8097 27.025 11.9263 27.025C12.1347 27.025 12.3097 27.2 12.3097 27.4083C12.3097 27.4917 12.2847 27.6083 12.193 27.7L10.3263 29.725L12.3597 31.5833C12.4513 31.6667 12.4763 31.8 12.4763 31.8917C12.4763 32.1 12.318 32.2833 12.093 32.2833C11.9847 32.2833 11.843 32.2333 11.7513 32.1333ZM13.6316 26.6667V31.9C13.6316 32.1417 13.4816 32.2833 13.24 32.2833C12.99 32.2833 12.8483 32.1417 12.8483 31.9V26.6667C12.8483 26.425 12.99 26.2833 13.2316 26.2833C13.4816 26.2833 13.6316 26.425 13.6316 26.6667ZM15.4116 30.8C15.2949 30.8 15.1282 30.8 15.0282 30.7917C15.1199 31.2667 15.4366 31.4917 15.9699 31.4917C16.1116 31.4917 16.2616 31.4833 16.4116 31.4833C16.6866 31.4833 16.8616 31.5917 16.8616 31.8417C16.8616 32.1167 16.6366 32.2083 16.4199 32.2417C16.2366 32.2667 16.1199 32.2667 15.9782 32.2667C14.8116 32.2667 14.2366 31.625 14.2366 30.4917C14.2366 29.2917 14.8866 28.6917 15.7866 28.6917C16.2866 28.6917 16.9366 28.9417 16.9366 29.75C16.9366 30.6583 16.1782 30.8 15.4116 30.8ZM16.1949 29.7417C16.1949 29.5 16.0032 29.3917 15.7616 29.3917C15.3366 29.3917 15.1032 29.6417 15.0282 30.0917C15.1032 30.0917 15.1949 30.1 15.4866 30.1C16.0532 30.1 16.1949 29.9667 16.1949 29.7417ZM18.3191 29.075V31.9C18.3191 32.1417 18.1691 32.2833 17.9275 32.2833C17.6775 32.2833 17.5358 32.1417 17.5358 31.9V29.075C17.5358 28.8333 17.6775 28.6917 17.9191 28.6917C18.1691 28.6917 18.3191 28.8333 18.3191 29.075ZM17.4358 27.6917V27.6167C17.4358 27.3333 17.6525 27.125 17.9275 27.125C18.2025 27.125 18.4191 27.3333 18.4191 27.6167V27.6917C18.4191 27.9833 18.2025 28.1833 17.9275 28.1833C17.6525 28.1833 17.4358 27.9833 17.4358 27.6917ZM21.7157 26.675V31.825C21.7157 31.8917 21.6991 31.9583 21.6741 32.0083C21.6241 32.1167 21.5324 32.2167 21.3241 32.2333C21.1824 32.2417 21.0824 32.25 20.9324 32.25C19.6907 32.25 18.9241 31.6167 18.9241 30.4667C18.9241 29.35 19.8324 28.7 20.9324 28.7V26.675C20.9324 26.4333 21.0824 26.2833 21.3241 26.2833C21.5657 26.2833 21.7157 26.4333 21.7157 26.675ZM19.7074 30.4667C19.7074 31.2 20.2074 31.4667 20.9324 31.4667V29.475C20.1824 29.4833 19.7074 29.8167 19.7074 30.4667ZM24.2174 30.725V29.075C24.2174 28.8333 24.3591 28.6917 24.6091 28.6917C24.8508 28.6917 24.9924 28.8333 24.9924 29.075V30.7C24.9924 31.8417 24.5424 32.2833 23.7008 32.2833C22.8591 32.2833 22.4424 31.8167 22.4424 30.7V29.075C22.4424 28.8333 22.5841 28.6917 22.8258 28.6917C23.0758 28.6917 23.2174 28.8333 23.2174 29.075V30.725C23.2174 31.3167 23.3174 31.5417 23.7091 31.5417C24.1008 31.5417 24.2174 31.3083 24.2174 30.725ZM27.5812 31.9V30.25C27.5812 29.6417 27.4895 29.4917 27.0478 29.4917C26.8728 29.4917 26.6728 29.525 26.4978 29.55V31.9C26.4978 32.1417 26.3478 32.2833 26.1062 32.2833C25.8562 32.2833 25.7145 32.1417 25.7145 31.9V29.075C25.7145 28.8333 25.8562 28.6917 26.0978 28.6917C26.2228 28.6917 26.3228 28.7333 26.3978 28.8C26.5562 28.7583 26.8228 28.7167 27.0978 28.7167C27.9395 28.7167 28.3562 29.2 28.3562 30.275V31.9C28.3562 32.1417 28.2145 32.2833 27.9728 32.2833C27.7228 32.2833 27.5812 32.1417 27.5812 31.9ZM29.5753 33.85C29.3586 33.825 29.1336 33.725 29.1336 33.45C29.1336 33.2 29.3086 33.0833 29.5836 33.0833C29.7586 33.0833 29.942 33.1 30.0836 33.1C30.8503 33.1 30.9503 32.8917 30.9503 32.4833V32.25C29.8503 32.25 28.942 31.7417 28.942 30.4833C28.942 29.3333 29.842 28.7 30.9503 28.7C31.1003 28.7 31.217 28.7 31.3586 28.7167C31.667 28.7583 31.7253 28.9667 31.7336 29.0833V29.1167V29.15V32.4583C31.7336 33.375 31.317 33.8667 30.017 33.8667C29.8753 33.8667 29.717 33.8667 29.5753 33.85ZM29.7253 30.4833C29.7253 31.1667 30.2003 31.4667 30.9503 31.475V29.4833C30.2253 29.4833 29.7253 29.75 29.7253 30.4833ZM32.3853 31.7917V31.7167C32.3853 31.4333 32.602 31.225 32.877 31.225C33.152 31.225 33.3687 31.4333 33.3687 31.7167V31.7917C33.3687 32.0833 33.152 32.2833 32.877 32.2833C32.602 32.2833 32.3853 32.0833 32.3853 31.7917ZM12.2968 38.23C12.1368 38.19 12.0301 38.0767 12.0301 37.9233C12.0301 37.7367 12.1568 37.61 12.3568 37.61C12.4501 37.61 12.5835 37.63 12.9435 37.63C13.2568 37.63 13.5635 37.4633 13.5635 37.13C13.5635 36.79 13.3968 36.6767 12.9568 36.4567C12.3435 36.15 12.0635 35.81 12.0635 35.23C12.0635 34.4967 12.6301 34.07 13.5435 34.07C13.6635 34.07 13.7768 34.0767 13.8568 34.09C14.0235 34.1167 14.1301 34.2367 14.1301 34.4033C14.1301 34.5833 14.0101 34.73 13.8301 34.73C13.7368 34.73 13.5368 34.71 13.3501 34.71C12.9101 34.71 12.7168 34.9567 12.7168 35.23C12.7168 35.5633 12.8768 35.67 13.3968 35.9633C13.8768 36.23 14.2235 36.5167 14.2235 37.1233C14.2235 37.8433 13.6835 38.27 12.8235 38.27C12.5968 38.27 12.4235 38.2633 12.2968 38.23ZM14.6711 39.23V35.7567C14.6711 35.69 14.6844 35.63 14.7177 35.5833C14.7577 35.5167 14.8311 35.4567 14.9711 35.4367C15.0844 35.4233 15.1777 35.4233 15.2977 35.4233C16.1844 35.4233 16.9044 35.9167 16.9044 36.8367C16.9044 37.8433 16.1777 38.25 15.2977 38.25V39.23C15.2977 39.4167 15.1777 39.5433 14.9844 39.5433C14.7911 39.5433 14.6711 39.3967 14.6711 39.23ZM16.2777 36.8367C16.2777 36.25 15.8777 36.05 15.2977 36.05V37.63C15.8911 37.6233 16.2777 37.3833 16.2777 36.8367ZM18.2191 37.09C18.1258 37.09 17.9924 37.09 17.9124 37.0833C17.9858 37.4633 18.2391 37.6433 18.6658 37.6433C18.7791 37.6433 18.8991 37.6367 19.0191 37.6367C19.2391 37.6367 19.3791 37.7233 19.3791 37.9233C19.3791 38.1433 19.1991 38.2167 19.0258 38.2433C18.8791 38.2633 18.7858 38.2633 18.6724 38.2633C17.7391 38.2633 17.2791 37.75 17.2791 36.8433C17.2791 35.8833 17.7991 35.4033 18.5191 35.4033C18.9191 35.4033 19.4391 35.6033 19.4391 36.25C19.4391 36.9767 18.8324 37.09 18.2191 37.09ZM18.8458 36.2433C18.8458 36.05 18.6924 35.9633 18.4991 35.9633C18.1591 35.9633 17.9724 36.1633 17.9124 36.5233C17.9724 36.5233 18.0458 36.53 18.2791 36.53C18.7324 36.53 18.8458 36.4233 18.8458 36.2433ZM21.4118 37.97V36.65C21.4118 36.1633 21.3385 36.0433 20.9851 36.0433C20.8451 36.0433 20.6851 36.07 20.5451 36.09V37.97C20.5451 38.1633 20.4251 38.2767 20.2318 38.2767C20.0318 38.2767 19.9185 38.1633 19.9185 37.97V35.71C19.9185 35.5167 20.0318 35.4033 20.2251 35.4033C20.3251 35.4033 20.4051 35.4367 20.4651 35.49C20.5918 35.4567 20.8051 35.4233 21.0251 35.4233C21.6985 35.4233 22.0318 35.81 22.0318 36.67V37.97C22.0318 38.1633 21.9185 38.2767 21.7251 38.2767C21.5251 38.2767 21.4118 38.1633 21.4118 37.97ZM24.7338 33.79V37.91C24.7338 37.9633 24.7204 38.0167 24.7004 38.0567C24.6604 38.1433 24.5871 38.2233 24.4204 38.2367C24.3071 38.2433 24.2271 38.25 24.1071 38.25C23.1138 38.25 22.5004 37.7433 22.5004 36.8233C22.5004 35.93 23.2271 35.41 24.1071 35.41V33.79C24.1071 33.5967 24.2271 33.4767 24.4204 33.4767C24.6138 33.4767 24.7338 33.5967 24.7338 33.79ZM23.1271 36.8233C23.1271 37.41 23.5271 37.6233 24.1071 37.6233V36.03C23.5071 36.0367 23.1271 36.3033 23.1271 36.8233ZM26.1618 37.09C26.0685 37.09 25.9351 37.09 25.8551 37.0833C25.9285 37.4633 26.1818 37.6433 26.6085 37.6433C26.7218 37.6433 26.8418 37.6367 26.9618 37.6367C27.1818 37.6367 27.3218 37.7233 27.3218 37.9233C27.3218 38.1433 27.1418 38.2167 26.9685 38.2433C26.8218 38.2633 26.7285 38.2633 26.6151 38.2633C25.6818 38.2633 25.2218 37.75 25.2218 36.8433C25.2218 35.8833 25.7418 35.4033 26.4618 35.4033C26.8618 35.4033 27.3818 35.6033 27.3818 36.25C27.3818 36.9767 26.7751 37.09 26.1618 37.09ZM26.7885 36.2433C26.7885 36.05 26.6351 35.9633 26.4418 35.9633C26.1018 35.9633 25.9151 36.1633 25.8551 36.5233C25.9151 36.5233 25.9885 36.53 26.2218 36.53C26.6751 36.53 26.7885 36.4233 26.7885 36.2433ZM29.3545 37.97V36.65C29.3545 36.1633 29.2812 36.0433 28.9278 36.0433C28.7878 36.0433 28.6278 36.07 28.4878 36.09V37.97C28.4878 38.1633 28.3678 38.2767 28.1745 38.2767C27.9745 38.2767 27.8612 38.1633 27.8612 37.97V35.71C27.8612 35.5167 27.9745 35.4033 28.1678 35.4033C28.2678 35.4033 28.3478 35.4367 28.4078 35.49C28.5345 35.4567 28.7478 35.4233 28.9678 35.4233C29.6412 35.4233 29.9745 35.81 29.9745 36.67V37.97C29.9745 38.1633 29.8612 38.2767 29.6678 38.2767C29.4678 38.2767 29.3545 38.1633 29.3545 37.97Z" fill="black"/>
<circle cx="21" cy="4.99998" r="1.66667" fill="black"/>
<path d="M1 37.9167L10.5833 37.9167" stroke="black" stroke-width="0.416667" stroke-linecap="round"/>
<path d="M31.4167 37.9167L41 37.9167" stroke="black" stroke-width="0.416667" stroke-linecap="round"/>
</svg>
